<svg width="20" height="20" viewBox="0 0 20 20" fill="none" xmlns="http://www.w3.org/2000/svg">
<path d="M10 10V17.5M10 10L7.91668 11.6667M10 10L12.0833 11.6667M4.19501 7.5975C3.40685 7.79583 2.71824 8.27514 2.25855 8.94537C1.79887 9.61561 1.59974 10.4306 1.6986 11.2373C1.79745 12.044 2.18748 12.7869 2.7954 13.3263C3.40332 13.8657 4.18728 14.1645 5.00001 14.1667H5.83334" stroke="#111111" stroke-width="1.66667" stroke-linecap="round" stroke-linejoin="round"/>
<path d="M13.1912 5.94833C12.9064 4.82048 12.2034 3.84312 11.2247 3.21438C10.246 2.58564 9.06479 2.35257 7.92061 2.56242C6.77643 2.77226 5.75484 3.40932 5.06295 4.34445C4.37105 5.27958 4.06061 6.4428 4.19456 7.59833C4.19456 7.59833 4.32206 8.33333 4.5829 8.75" stroke="#111111" stroke-width="1.66667" stroke-linecap="round" stroke-linejoin="round"/>
<path d="M14.1663 14.1667C14.7547 14.1663 15.3363 14.0413 15.8729 13.7999C16.4095 13.5585 16.8888 13.2062 17.2794 12.7662C17.6701 12.3262 17.9631 11.8085 18.1392 11.2471C18.3153 10.6857 18.3705 10.0934 18.3012 9.50913C18.2318 8.92486 18.0396 8.3619 17.737 7.85729C17.4344 7.35269 17.0284 6.91788 16.5457 6.5815C16.063 6.24511 15.5145 6.01477 14.9363 5.90564C14.3582 5.79651 13.7635 5.81107 13.1913 5.94834L12.083 6.25001" stroke="#111111" stroke-width="1.66667" stroke-linecap="round" stroke-linejoin="round"/>
</svg>
