<svg width="165" height="31" viewBox="0 0 165 31" fill="none" xmlns="http://www.w3.org/2000/svg">
<path d="M4.98616 9.796L3.25016 9.376V8.284C3.47416 8.24667 3.76349 8.20933 4.11816 8.172C4.47282 8.116 4.83682 8.06933 5.21016 8.032C5.58349 7.976 5.91016 7.93867 6.19016 7.92C6.47016 7.88267 6.63816 7.864 6.69416 7.864C6.75016 7.864 6.85282 7.92933 7.00216 8.06C7.15149 8.19067 7.28216 8.34 7.39416 8.508C7.52482 8.65733 7.59016 8.76 7.59016 8.816V23.348L9.99816 23.768L9.46616 24.804C9.27949 24.8227 8.99016 24.86 8.59816 24.916C8.22482 24.972 7.84216 25.0187 7.45016 25.056C7.05816 25.112 6.71282 25.1587 6.41416 25.196C6.13416 25.2333 5.97549 25.252 5.93816 25.252C5.88216 25.252 5.77949 25.1867 5.63016 25.056C5.48082 24.9253 5.33149 24.7853 5.18216 24.636C5.05149 24.4867 4.98616 24.384 4.98616 24.328V9.796ZM10.2222 7.864H12.3782C13.3115 7.864 14.1142 8.04133 14.7862 8.396C15.4582 8.75067 15.9715 9.36667 16.3262 10.244C16.6995 11.1213 16.8862 12.344 16.8862 13.912C16.8862 14.3787 16.8582 14.836 16.8022 15.284C16.7648 15.7133 16.6715 16.0587 16.5222 16.32C16.4288 16.4693 16.2608 16.6653 16.0182 16.908C15.7942 17.132 15.5235 17.3653 15.2062 17.608C14.8888 17.8507 14.5622 18.084 14.2262 18.308C13.8902 18.5133 13.5728 18.6813 13.2742 18.812C12.9942 18.9427 12.7608 19.008 12.5742 19.008C12.1822 19.008 11.7902 18.9987 11.3982 18.98C11.0062 18.9613 10.6142 18.9427 10.2222 18.924L10.2502 17.188L13.0222 17.524C13.1715 17.5427 13.3115 17.4867 13.4422 17.356C13.5728 17.2067 13.6848 16.9733 13.7782 16.656C13.8902 16.3387 13.9742 15.928 14.0302 15.424C14.1048 14.92 14.1422 14.304 14.1422 13.576C14.1422 12.0827 14.0115 10.9907 13.7502 10.3C13.4888 9.59067 13.0875 9.25467 12.5462 9.292L10.2222 9.46V7.864ZM9.88616 7.864H10.5862V22.172C10.5862 22.284 10.5395 22.4893 10.4462 22.788C10.3528 23.068 10.2035 23.3947 9.99816 23.768H9.13016V10.272C9.13016 10.0667 9.20482 9.74 9.35416 9.292C9.52216 8.844 9.69949 8.368 9.88616 7.864ZM20.709 18.868C20.709 20.0813 20.8677 21.0053 21.185 21.64C21.521 22.2747 21.8944 22.704 22.305 22.928C22.7157 23.152 23.0517 23.264 23.313 23.264C23.3877 23.264 23.565 23.264 23.845 23.264C24.125 23.2453 24.4517 23.2267 24.825 23.208C25.1984 23.1893 25.5717 23.1707 25.945 23.152C26.3184 23.1333 26.645 23.124 26.925 23.124V24.272C26.589 24.384 26.2064 24.496 25.777 24.608C25.3477 24.72 24.9184 24.8227 24.489 24.916C24.0597 25.0093 23.677 25.084 23.341 25.14C23.0237 25.2147 22.7997 25.252 22.669 25.252C21.9037 25.252 21.1664 25.0467 20.457 24.636C19.7477 24.2067 19.1597 23.5627 18.693 22.704C18.245 21.8267 18.021 20.716 18.021 19.372C18.021 18.4387 18.0864 17.58 18.217 16.796C18.3477 16.012 18.5064 15.4427 18.693 15.088C18.8424 14.864 19.1037 14.5933 19.477 14.276C19.869 13.94 20.289 13.6227 20.737 13.324C21.2037 13.0067 21.633 12.7453 22.025 12.54C22.417 12.316 22.7064 12.204 22.893 12.204C23.9197 12.204 24.7504 12.372 25.385 12.708C26.0384 13.044 26.5237 13.6787 26.841 14.612C27.1584 15.5267 27.317 16.88 27.317 18.672L19.477 19.484V18.42L24.601 17.58C24.601 16.4413 24.4797 15.5453 24.237 14.892C23.9944 14.22 23.4717 13.884 22.669 13.884C22.5197 13.884 22.3517 13.8933 22.165 13.912C21.997 13.9307 21.8104 13.9867 21.605 14.08C21.3437 14.2107 21.129 14.7147 20.961 15.592C20.793 16.4507 20.709 17.5427 20.709 18.868ZM35.1927 25.252C33.27 25.252 31.814 24.7667 30.8247 23.796C29.854 22.8253 29.3687 21.2947 29.3687 19.204C29.3687 18.364 29.434 17.5613 29.5647 16.796C29.6954 16.012 29.854 15.4427 30.0407 15.088C30.19 14.864 30.4514 14.5933 30.8247 14.276C31.2167 13.94 31.6367 13.6227 32.0847 13.324C32.5514 13.0067 32.9807 12.7453 33.3727 12.54C33.7647 12.316 34.0447 12.204 34.2127 12.204C36.098 12.204 37.5167 12.7173 38.4687 13.744C39.4394 14.752 39.9247 16.1987 39.9247 18.084C39.9247 18.9987 39.8594 19.848 39.7287 20.632C39.598 21.416 39.458 22.032 39.3087 22.48C39.1594 22.6667 38.898 22.9187 38.5247 23.236C38.1514 23.5347 37.7314 23.8427 37.2647 24.16C36.8167 24.4773 36.3967 24.7387 36.0047 24.944C35.6314 25.1493 35.3607 25.252 35.1927 25.252ZM35.3327 23.656C35.4074 23.6373 35.5567 23.572 35.7807 23.46C36.0047 23.348 36.2194 23.236 36.4247 23.124C36.6487 23.012 36.7607 22.956 36.7607 22.956C36.854 22.5267 36.9567 21.9573 37.0687 21.248C37.1807 20.5387 37.2367 19.6053 37.2367 18.448C37.2367 17.5147 37.1154 16.712 36.8727 16.04C36.6487 15.3493 36.3034 14.8173 35.8367 14.444C35.37 14.052 34.782 13.856 34.0727 13.856C33.886 13.856 33.6994 13.8747 33.5127 13.912C33.326 13.9307 33.1394 13.9867 32.9527 14.08C32.71 14.2107 32.4954 14.6867 32.3087 15.508C32.1407 16.3293 32.0567 17.4307 32.0567 18.812C32.0567 20.1373 32.2247 21.1547 32.5607 21.864C32.8967 22.5547 33.3167 23.0307 33.8207 23.292C34.3247 23.5347 34.8287 23.656 35.3327 23.656ZM48.1602 12.204C48.8695 12.204 49.5602 12.4187 50.2322 12.848C50.9042 13.2587 51.4549 13.9027 51.8842 14.78C52.3135 15.6387 52.5282 16.7587 52.5282 18.14C52.5282 19.1107 52.4629 19.9787 52.3322 20.744C52.2202 21.5093 52.0615 22.088 51.8562 22.48C51.7069 22.6853 51.4455 22.9467 51.0722 23.264C50.6989 23.5627 50.2882 23.8707 49.8402 24.188C49.4109 24.4867 49.0002 24.7387 48.6082 24.944C48.2349 25.1493 47.9642 25.252 47.7962 25.252C47.6095 25.252 47.2829 25.2147 46.8162 25.14C46.3682 25.084 45.8642 25.0187 45.3042 24.944V28.052L46.4242 28.5V29.62C46.2749 29.6573 46.0602 29.6947 45.7802 29.732C45.5189 29.788 45.2389 29.8347 44.9402 29.872C44.6415 29.928 44.3802 29.9747 44.1562 30.012C43.9322 30.0493 43.7922 30.068 43.7362 30.068C43.6802 30.068 43.5682 30.0027 43.4002 29.872C43.2509 29.7413 43.1015 29.6013 42.9522 29.452C42.8215 29.3027 42.7562 29.2 42.7562 29.144L42.8962 24.636V14.08L41.9442 13.688V12.652C42.0935 12.6147 42.2895 12.5773 42.5322 12.54C42.7935 12.484 43.0549 12.4373 43.3162 12.4C43.5775 12.344 43.8109 12.2973 44.0162 12.26C44.2215 12.2227 44.3522 12.204 44.4082 12.204C44.4642 12.204 44.5669 12.2693 44.7162 12.4C44.8655 12.5307 45.0055 12.6707 45.1362 12.82C45.2855 12.9507 45.3602 13.0533 45.3602 13.128V14.22C45.6962 13.9773 46.0695 13.6973 46.4802 13.38C46.8909 13.0627 47.2549 12.792 47.5722 12.568C47.9082 12.3253 48.1042 12.204 48.1602 12.204ZM47.9922 14.276C47.9362 14.276 47.7495 14.3413 47.4322 14.472C47.1335 14.6027 46.7975 14.7613 46.4242 14.948C46.0509 15.116 45.7242 15.2653 45.4442 15.396V23.096C45.7429 23.1893 46.1162 23.2827 46.5642 23.376C47.0309 23.4693 47.4695 23.544 47.8802 23.6C48.3095 23.6373 48.6082 23.6467 48.7762 23.628C49.0002 23.5907 49.1869 23.4227 49.3362 23.124C49.5042 22.8253 49.6255 22.312 49.7002 21.584C49.7935 20.8373 49.8402 19.8107 49.8402 18.504C49.8402 17.4587 49.7189 16.628 49.4762 16.012C49.2522 15.396 48.9909 14.9573 48.6922 14.696C48.4122 14.416 48.1789 14.276 47.9922 14.276ZM56.4817 25.252C56.4257 25.252 56.323 25.1867 56.1737 25.056C56.0243 24.9253 55.8843 24.7853 55.7537 24.636C55.623 24.4867 55.5577 24.384 55.5577 24.328V8.788L54.5497 8.396V7.36C54.5497 7.36 54.6243 7.35067 54.7737 7.332C54.9417 7.29467 55.147 7.25733 55.3897 7.22C55.6323 7.164 55.875 7.11733 56.1177 7.08C56.379 7.024 56.603 6.98667 56.7897 6.968C56.9763 6.93067 57.0977 6.912 57.1537 6.912C57.2097 6.912 57.3123 6.97733 57.4617 7.108C57.611 7.23867 57.751 7.37867 57.8817 7.528C58.0123 7.65867 58.0777 7.76133 58.0777 7.836V23.348L59.0297 23.768V24.804C59.0297 24.804 58.9083 24.832 58.6657 24.888C58.4417 24.9253 58.171 24.972 57.8537 25.028C57.5363 25.084 57.2377 25.1307 56.9577 25.168C56.6963 25.224 56.5377 25.252 56.4817 25.252ZM63.7481 18.868C63.7481 20.0813 63.9068 21.0053 64.2241 21.64C64.5601 22.2747 64.9334 22.704 65.3441 22.928C65.7548 23.152 66.0908 23.264 66.3521 23.264C66.4268 23.264 66.6041 23.264 66.8841 23.264C67.1641 23.2453 67.4908 23.2267 67.8641 23.208C68.2374 23.1893 68.6108 23.1707 68.9841 23.152C69.3574 23.1333 69.6841 23.124 69.9641 23.124V24.272C69.6281 24.384 69.2454 24.496 68.8161 24.608C68.3868 24.72 67.9574 24.8227 67.5281 24.916C67.0988 25.0093 66.7161 25.084 66.3801 25.14C66.0628 25.2147 65.8388 25.252 65.7081 25.252C64.9428 25.252 64.2054 25.0467 63.4961 24.636C62.7868 24.2067 62.1988 23.5627 61.7321 22.704C61.2841 21.8267 61.0601 20.716 61.0601 19.372C61.0601 18.4387 61.1254 17.58 61.2561 16.796C61.3868 16.012 61.5454 15.4427 61.7321 15.088C61.8814 14.864 62.1428 14.5933 62.5161 14.276C62.9081 13.94 63.3281 13.6227 63.7761 13.324C64.2428 13.0067 64.6721 12.7453 65.0641 12.54C65.4561 12.316 65.7454 12.204 65.9321 12.204C66.9588 12.204 67.7894 12.372 68.4241 12.708C69.0774 13.044 69.5628 13.6787 69.8801 14.612C70.1974 15.5267 70.3561 16.88 70.3561 18.672L62.5161 19.484V18.42L67.6401 17.58C67.6401 16.4413 67.5188 15.5453 67.2761 14.892C67.0334 14.22 66.5108 13.884 65.7081 13.884C65.5588 13.884 65.3908 13.8933 65.2041 13.912C65.0361 13.9307 64.8494 13.9867 64.6441 14.08C64.3828 14.2107 64.1681 14.7147 64.0001 15.592C63.8321 16.4507 63.7481 17.5427 63.7481 18.868ZM77.5038 25.252C77.3171 25.252 77.0184 25.2427 76.6078 25.224C76.1971 25.2053 75.7304 25.1773 75.2078 25.14C74.6851 25.1027 74.1811 25.056 73.6958 25C73.2104 24.9627 72.7998 24.9253 72.4638 24.888L72.5198 20.856L73.9198 20.828L74.5078 22.956C74.8064 23.0493 75.1424 23.1427 75.5158 23.236C75.8891 23.3293 76.2438 23.404 76.5798 23.46C76.9158 23.516 77.1678 23.544 77.3358 23.544C77.4478 23.544 77.5691 23.46 77.6998 23.292C77.8304 23.124 77.9424 22.9187 78.0358 22.676C78.1478 22.4147 78.2038 22.1813 78.2038 21.976C78.2038 21.6213 78.1198 21.332 77.9518 21.108C77.7838 20.8653 77.5038 20.6227 77.1118 20.38C76.7198 20.1373 76.1878 19.8387 75.5158 19.484C74.7878 19.0733 74.1998 18.7093 73.7518 18.392C73.3224 18.056 73.0051 17.7013 72.7998 17.328C72.6131 16.9547 72.5198 16.5253 72.5198 16.04C72.5198 15.7973 72.5291 15.5547 72.5478 15.312C72.5664 15.0507 72.6038 14.836 72.6598 14.668C72.8091 14.444 73.0144 14.192 73.2758 13.912C73.5558 13.6133 73.8451 13.3427 74.1438 13.1C74.4611 12.8387 74.7504 12.624 75.0118 12.456C75.2918 12.288 75.5064 12.204 75.6558 12.204C75.8798 12.204 76.1878 12.2133 76.5798 12.232C76.9904 12.2507 77.4291 12.2693 77.8958 12.288C78.3624 12.3067 78.8104 12.3347 79.2398 12.372C79.6691 12.3907 80.0238 12.4187 80.3038 12.456L80.2198 15.872H78.6518L78.4558 14.388C78.3811 14.3507 78.2038 14.3133 77.9238 14.276C77.6438 14.22 77.3264 14.1733 76.9718 14.136C76.6358 14.08 76.3184 14.0333 76.0198 13.996C75.7398 13.9587 75.5531 13.94 75.4597 13.94C75.3478 13.94 75.2451 13.9773 75.1518 14.052C75.0584 14.1267 74.9838 14.248 74.9278 14.416C74.8718 14.584 74.8438 14.8173 74.8438 15.116C74.8438 15.4707 74.9464 15.7787 75.1518 16.04C75.3571 16.2827 75.6091 16.4973 75.9078 16.684C76.2251 16.8707 76.5424 17.0667 76.8598 17.272C77.1958 17.4773 77.5878 17.7107 78.0358 17.972C78.5024 18.2333 78.9504 18.5133 79.3798 18.812C79.8278 19.1107 80.1918 19.4467 80.4718 19.82C80.7518 20.1747 80.8918 20.5667 80.8918 20.996C80.8918 21.1827 80.8824 21.3973 80.8638 21.64C80.8451 21.8827 80.7891 22.144 80.6958 22.424C80.5651 22.6667 80.3691 22.9467 80.1078 23.264C79.8464 23.5813 79.5571 23.8987 79.2398 24.216C78.9224 24.5147 78.6051 24.7667 78.2878 24.972C77.9891 25.1587 77.7278 25.252 77.5038 25.252Z" fill="#F6F5F5"/>
<path d="M88.5487 9.796L86.8127 9.376V8.284C87.0367 8.24667 87.326 8.20933 87.6807 8.172C88.0353 8.116 88.3993 8.06933 88.7727 8.032C89.146 7.976 89.4727 7.93867 89.7527 7.92C90.0327 7.88267 90.2007 7.864 90.2567 7.864C90.3127 7.864 90.4153 7.92933 90.5647 8.06C90.714 8.19067 90.8447 8.34 90.9567 8.508C91.0873 8.65733 91.1527 8.76 91.1527 8.816V23.348L93.5607 23.768L93.0287 24.804C92.842 24.8227 92.5527 24.86 92.1607 24.916C91.7873 24.972 91.4047 25.0187 91.0127 25.056C90.6207 25.112 90.2753 25.1587 89.9767 25.196C89.6967 25.2333 89.538 25.252 89.5007 25.252C89.4447 25.252 89.342 25.1867 89.1927 25.056C89.0433 24.9253 88.894 24.7853 88.7447 24.636C88.614 24.4867 88.5487 24.384 88.5487 24.328V9.796ZM93.7847 7.864H95.9407C96.874 7.864 97.6767 8.04133 98.3487 8.396C99.0207 8.75067 99.534 9.36667 99.8887 10.244C100.262 11.1213 100.449 12.344 100.449 13.912C100.449 14.3787 100.421 14.836 100.365 15.284C100.327 15.7133 100.234 16.0587 100.085 16.32C99.9913 16.4693 99.8233 16.6653 99.5807 16.908C99.3567 17.132 99.086 17.3653 98.7687 17.608C98.4513 17.8507 98.1247 18.084 97.7887 18.308C97.4527 18.5133 97.1353 18.6813 96.8367 18.812C96.5567 18.9427 96.3233 19.008 96.1367 19.008C95.7447 19.008 95.3527 18.9987 94.9607 18.98C94.5687 18.9613 94.1767 18.9427 93.7847 18.924L93.8127 17.188L96.5847 17.524C96.734 17.5427 96.874 17.4867 97.0047 17.356C97.1353 17.2067 97.2473 16.9733 97.3407 16.656C97.4527 16.3387 97.5367 15.928 97.5927 15.424C97.6673 14.92 97.7047 14.304 97.7047 13.576C97.7047 12.0827 97.574 10.9907 97.3127 10.3C97.0513 9.59067 96.65 9.25467 96.1087 9.292L93.7847 9.46V7.864ZM93.4487 7.864H94.1487V22.172C94.1487 22.284 94.102 22.4893 94.0087 22.788C93.9153 23.068 93.766 23.3947 93.5607 23.768H92.6927V10.272C92.6927 10.0667 92.7673 9.74 92.9167 9.292C93.0847 8.844 93.262 8.368 93.4487 7.864ZM103.404 25.252C103.348 25.252 103.245 25.1867 103.096 25.056C102.946 24.9253 102.797 24.7853 102.648 24.636C102.517 24.4867 102.452 24.384 102.452 24.328V14.024L101.472 13.688V12.652C101.472 12.652 101.574 12.6333 101.78 12.596C102.004 12.54 102.265 12.484 102.564 12.428C102.862 12.372 103.133 12.3253 103.376 12.288C103.637 12.232 103.796 12.204 103.852 12.204C103.908 12.204 104.029 12.2787 104.216 12.428C104.402 12.5773 104.57 12.736 104.72 12.904C104.888 13.072 104.972 13.184 104.972 13.24L104.916 14.332C105.177 14.0707 105.42 13.8187 105.644 13.576C105.886 13.3147 106.11 13.0813 106.316 12.876C106.521 12.6707 106.689 12.512 106.82 12.4C106.969 12.2693 107.062 12.204 107.1 12.204C107.305 12.204 107.613 12.26 108.024 12.372C108.434 12.484 108.752 12.5773 108.976 12.652C109.013 12.764 109.05 12.9133 109.088 13.1C109.125 13.2867 109.144 13.4267 109.144 13.52C109.144 13.576 109.106 13.6787 109.032 13.828C108.976 13.9773 108.901 14.136 108.808 14.304C108.733 14.472 108.649 14.6213 108.556 14.752C108.481 14.8827 108.425 14.9573 108.388 14.976C108.257 14.92 108.108 14.864 107.94 14.808C107.772 14.752 107.594 14.7053 107.408 14.668C107.24 14.6307 107.072 14.612 106.904 14.612C106.848 14.612 106.754 14.64 106.624 14.696C106.493 14.7333 106.344 14.7987 106.176 14.892C106.008 14.9667 105.821 15.06 105.616 15.172C105.429 15.2653 105.224 15.3773 105 15.508V23.236L106.428 23.656V24.804C106.428 24.804 106.334 24.8227 106.148 24.86C105.961 24.8787 105.728 24.916 105.448 24.972C105.168 25.0093 104.878 25.0467 104.58 25.084C104.281 25.14 104.02 25.1773 103.796 25.196C103.59 25.2333 103.46 25.252 103.404 25.252ZM115.802 25.252C113.879 25.252 112.423 24.7667 111.434 23.796C110.463 22.8253 109.978 21.2947 109.978 19.204C109.978 18.364 110.043 17.5613 110.174 16.796C110.305 16.012 110.463 15.4427 110.65 15.088C110.799 14.864 111.061 14.5933 111.434 14.276C111.826 13.94 112.246 13.6227 112.694 13.324C113.161 13.0067 113.59 12.7453 113.982 12.54C114.374 12.316 114.654 12.204 114.822 12.204C116.707 12.204 118.126 12.7173 119.078 13.744C120.049 14.752 120.534 16.1987 120.534 18.084C120.534 18.9987 120.469 19.848 120.338 20.632C120.207 21.416 120.067 22.032 119.918 22.48C119.769 22.6667 119.507 22.9187 119.134 23.236C118.761 23.5347 118.341 23.8427 117.874 24.16C117.426 24.4773 117.006 24.7387 116.614 24.944C116.241 25.1493 115.97 25.252 115.802 25.252ZM115.942 23.656C116.017 23.6373 116.166 23.572 116.39 23.46C116.614 23.348 116.829 23.236 117.034 23.124C117.258 23.012 117.37 22.956 117.37 22.956C117.463 22.5267 117.566 21.9573 117.678 21.248C117.79 20.5387 117.846 19.6053 117.846 18.448C117.846 17.5147 117.725 16.712 117.482 16.04C117.258 15.3493 116.913 14.8173 116.446 14.444C115.979 14.052 115.391 13.856 114.682 13.856C114.495 13.856 114.309 13.8747 114.122 13.912C113.935 13.9307 113.749 13.9867 113.562 14.08C113.319 14.2107 113.105 14.6867 112.918 15.508C112.75 16.3293 112.666 17.4307 112.666 18.812C112.666 20.1373 112.834 21.1547 113.17 21.864C113.506 22.5547 113.926 23.0307 114.43 23.292C114.934 23.5347 115.438 23.656 115.942 23.656ZM122.218 13.828V13.044L123.534 12.428V11.252C123.534 11.028 123.627 10.7387 123.814 10.384C124 10.0107 124.234 9.628 124.514 9.236C124.794 8.844 125.092 8.47067 125.41 8.116C125.746 7.76133 126.054 7.472 126.334 7.248C126.632 7.024 126.866 6.912 127.034 6.912C127.108 6.912 127.276 6.92133 127.538 6.94C127.799 6.94 128.098 6.94933 128.434 6.968C128.77 6.98667 129.096 7.00533 129.414 7.024C129.731 7.04267 129.983 7.06133 130.17 7.08C130.3 7.15467 130.431 7.29467 130.562 7.5C130.711 7.68667 130.786 7.82667 130.786 7.92C130.786 7.95733 130.748 8.07867 130.674 8.284C130.599 8.47067 130.515 8.66667 130.422 8.872C130.328 9.07733 130.263 9.22667 130.226 9.32C130.076 9.28267 129.824 9.22667 129.47 9.152C129.134 9.07733 128.77 9.012 128.378 8.956C127.986 8.88133 127.622 8.82533 127.286 8.788C126.968 8.732 126.754 8.704 126.642 8.704C126.567 8.704 126.483 8.77867 126.39 8.928C126.315 9.07733 126.25 9.27333 126.194 9.516C126.138 9.75867 126.11 10.0107 126.11 10.272V12.456H131.626C131.7 12.456 131.822 12.5307 131.99 12.68C132.176 12.8107 132.344 12.96 132.494 13.128C132.662 13.2773 132.746 13.3987 132.746 13.492V23.488L133.726 23.768V24.804C133.726 24.804 133.614 24.832 133.39 24.888C133.184 24.9253 132.932 24.972 132.634 25.028C132.335 25.084 132.055 25.1307 131.794 25.168C131.551 25.224 131.402 25.252 131.346 25.252C131.29 25.252 131.168 25.1773 130.982 25.028C130.795 24.8787 130.618 24.72 130.45 24.552C130.3 24.384 130.226 24.272 130.226 24.216V13.968H126.082L125.998 25.812L126.306 28.584C126.007 28.7333 125.727 28.8547 125.466 28.948C125.223 29.0413 125.018 29.1067 124.85 29.144C124.682 29.2 124.56 29.228 124.486 29.228C124.43 29.228 124.327 29.1627 124.178 29.032C124.028 28.9013 123.879 28.7613 123.73 28.612C123.599 28.4627 123.534 28.36 123.534 28.304V13.884L122.218 13.828ZM137.556 25.252C137.5 25.252 137.397 25.1867 137.248 25.056C137.099 24.9253 136.959 24.7853 136.828 24.636C136.697 24.4867 136.632 24.384 136.632 24.328V8.788L135.624 8.396V7.36C135.624 7.36 135.699 7.35067 135.848 7.332C136.016 7.29467 136.221 7.25733 136.464 7.22C136.707 7.164 136.949 7.11733 137.192 7.08C137.453 7.024 137.677 6.98667 137.864 6.968C138.051 6.93067 138.172 6.912 138.228 6.912C138.284 6.912 138.387 6.97733 138.536 7.108C138.685 7.23867 138.825 7.37867 138.956 7.528C139.087 7.65867 139.152 7.76133 139.152 7.836V23.348L140.104 23.768V24.804C140.104 24.804 139.983 24.832 139.74 24.888C139.516 24.9253 139.245 24.972 138.928 25.028C138.611 25.084 138.312 25.1307 138.032 25.168C137.771 25.224 137.612 25.252 137.556 25.252ZM144.822 18.868C144.822 20.0813 144.981 21.0053 145.298 21.64C145.634 22.2747 146.008 22.704 146.418 22.928C146.829 23.152 147.165 23.264 147.426 23.264C147.501 23.264 147.678 23.264 147.958 23.264C148.238 23.2453 148.565 23.2267 148.938 23.208C149.312 23.1893 149.685 23.1707 150.058 23.152C150.432 23.1333 150.758 23.124 151.038 23.124V24.272C150.702 24.384 150.32 24.496 149.89 24.608C149.461 24.72 149.032 24.8227 148.602 24.916C148.173 25.0093 147.79 25.084 147.454 25.14C147.137 25.2147 146.913 25.252 146.782 25.252C146.017 25.252 145.28 25.0467 144.57 24.636C143.861 24.2067 143.273 23.5627 142.806 22.704C142.358 21.8267 142.134 20.716 142.134 19.372C142.134 18.4387 142.2 17.58 142.33 16.796C142.461 16.012 142.62 15.4427 142.806 15.088C142.956 14.864 143.217 14.5933 143.59 14.276C143.982 13.94 144.402 13.6227 144.85 13.324C145.317 13.0067 145.746 12.7453 146.138 12.54C146.53 12.316 146.82 12.204 147.006 12.204C148.033 12.204 148.864 12.372 149.498 12.708C150.152 13.044 150.637 13.6787 150.954 14.612C151.272 15.5267 151.43 16.88 151.43 18.672L143.59 19.484V18.42L148.714 17.58C148.714 16.4413 148.593 15.5453 148.35 14.892C148.108 14.22 147.585 13.884 146.782 13.884C146.633 13.884 146.465 13.8933 146.278 13.912C146.11 13.9307 145.924 13.9867 145.718 14.08C145.457 14.2107 145.242 14.7147 145.074 15.592C144.906 16.4507 144.822 17.5427 144.822 18.868ZM158.578 25.252C158.391 25.252 158.093 25.2427 157.682 25.224C157.271 25.2053 156.805 25.1773 156.282 25.14C155.759 25.1027 155.255 25.056 154.77 25C154.285 24.9627 153.874 24.9253 153.538 24.888L153.594 20.856L154.994 20.828L155.582 22.956C155.881 23.0493 156.217 23.1427 156.59 23.236C156.963 23.3293 157.318 23.404 157.654 23.46C157.99 23.516 158.242 23.544 158.41 23.544C158.522 23.544 158.643 23.46 158.774 23.292C158.905 23.124 159.017 22.9187 159.11 22.676C159.222 22.4147 159.278 22.1813 159.278 21.976C159.278 21.6213 159.194 21.332 159.026 21.108C158.858 20.8653 158.578 20.6227 158.186 20.38C157.794 20.1373 157.262 19.8387 156.59 19.484C155.862 19.0733 155.274 18.7093 154.826 18.392C154.397 18.056 154.079 17.7013 153.874 17.328C153.687 16.9547 153.594 16.5253 153.594 16.04C153.594 15.7973 153.603 15.5547 153.622 15.312C153.641 15.0507 153.678 14.836 153.734 14.668C153.883 14.444 154.089 14.192 154.35 13.912C154.63 13.6133 154.919 13.3427 155.218 13.1C155.535 12.8387 155.825 12.624 156.086 12.456C156.366 12.288 156.581 12.204 156.73 12.204C156.954 12.204 157.262 12.2133 157.654 12.232C158.065 12.2507 158.503 12.2693 158.97 12.288C159.437 12.3067 159.885 12.3347 160.314 12.372C160.743 12.3907 161.098 12.4187 161.378 12.456L161.294 15.872H159.726L159.53 14.388C159.455 14.3507 159.278 14.3133 158.998 14.276C158.718 14.22 158.401 14.1733 158.046 14.136C157.71 14.08 157.393 14.0333 157.094 13.996C156.814 13.9587 156.627 13.94 156.534 13.94C156.422 13.94 156.319 13.9773 156.226 14.052C156.133 14.1267 156.058 14.248 156.002 14.416C155.946 14.584 155.918 14.8173 155.918 15.116C155.918 15.4707 156.021 15.7787 156.226 16.04C156.431 16.2827 156.683 16.4973 156.982 16.684C157.299 16.8707 157.617 17.0667 157.934 17.272C158.27 17.4773 158.662 17.7107 159.11 17.972C159.577 18.2333 160.025 18.5133 160.454 18.812C160.902 19.1107 161.266 19.4467 161.546 19.82C161.826 20.1747 161.966 20.5667 161.966 20.996C161.966 21.1827 161.957 21.3973 161.938 21.64C161.919 21.8827 161.863 22.144 161.77 22.424C161.639 22.6667 161.443 22.9467 161.182 23.264C160.921 23.5813 160.631 23.8987 160.314 24.216C159.997 24.5147 159.679 24.7667 159.362 24.972C159.063 25.1587 158.802 25.252 158.578 25.252Z" fill="#548CA8"/>
<rect x="130" width="5" height="5" fill="#E6E6E6"/>
<rect x="139" width="5" height="5" fill="#E6E6E6"/>
</svg>
