<?xml version="1.0" standalone="no"?><svg xmlns="http://www.w3.org/2000/svg" viewBox="0 0 1440 320"><path fill="#F6F5F5" fill-opacity="1" d="M0,128L16,133.3C32,139,64,149,96,181.3C128,213,160,267,192,277.3C224,288,256,256,288,240C320,224,352,224,384,218.7C416,213,448,203,480,202.7C512,203,544,213,576,197.3C608,181,640,139,672,149.3C704,160,736,224,768,224C800,224,832,160,864,133.3C896,107,928,117,960,117.3C992,117,1024,107,1056,117.3C1088,128,1120,160,1152,144C1184,128,1216,64,1248,58.7C1280,53,1312,107,1344,117.3C1376,128,1408,96,1424,80L1440,64L1440,320L1424,320C1408,320,1376,320,1344,320C1312,320,1280,320,1248,320C1216,320,1184,320,1152,320C1120,320,1088,320,1056,320C1024,320,992,320,960,320C928,320,896,320,864,320C832,320,800,320,768,320C736,320,704,320,672,320C640,320,608,320,576,320C544,320,512,320,480,320C448,320,416,320,384,320C352,320,320,320,288,320C256,320,224,320,192,320C160,320,128,320,96,320C64,320,32,320,16,320L0,320Z"></path></svg>