<svg width="15" height="15" viewBox="0 0 15 15" fill="none" xmlns="http://www.w3.org/2000/svg">
<g clip-path="url(#clip0_153_669)">
<path d="M1.875 1.875V14.5312C1.87494 14.6126 1.89608 14.6927 1.93634 14.7634C1.97659 14.8342 2.03458 14.8932 2.10459 14.9347C2.17459 14.9763 2.25421 14.9989 2.3356 15.0003C2.41699 15.0017 2.49734 14.9819 2.56875 14.9428L7.5 12.2522L12.4313 14.9428C12.5027 14.9819 12.583 15.0017 12.6644 15.0003C12.7458 14.9989 12.8254 14.9763 12.8954 14.9347C12.9654 14.8932 13.0234 14.8342 13.0637 14.7634C13.1039 14.6927 13.1251 14.6126 13.125 14.5312V1.875C13.125 1.37772 12.9275 0.900806 12.5758 0.549175C12.2242 0.197544 11.7473 0 11.25 0L3.75 0C3.25272 0 2.77581 0.197544 2.42417 0.549175C2.07254 0.900806 1.875 1.37772 1.875 1.875Z" fill="#111111"/>
</g>
<defs>
<clipPath id="clip0_153_669">
<rect width="15" height="15" fill="white"/>
</clipPath>
</defs>
</svg>
