<svg width="158" height="32" viewBox="0 0 158 32" fill="none" xmlns="http://www.w3.org/2000/svg">
<path d="M6.57209 10.796L4.83609 10.376V9.284C5.06009 9.24667 5.34943 9.20933 5.70409 9.172C6.05876 9.116 6.42276 9.06933 6.79609 9.032C7.16943 8.976 7.49609 8.93867 7.77609 8.92C8.05609 8.88267 8.22409 8.864 8.28009 8.864C8.33609 8.864 8.43876 8.92933 8.58809 9.06C8.73743 9.19067 8.86809 9.34 8.98009 9.508C9.11076 9.65733 9.17609 9.76 9.17609 9.816V24.348L11.5841 24.768L11.0521 25.804C10.8654 25.8227 10.5761 25.86 10.1841 25.916C9.81076 25.972 9.42809 26.0187 9.03609 26.056C8.64409 26.112 8.29876 26.1587 8.00009 26.196C7.72009 26.2333 7.56143 26.252 7.52409 26.252C7.46809 26.252 7.36543 26.1867 7.21609 26.056C7.06676 25.9253 6.91743 25.7853 6.76809 25.636C6.63743 25.4867 6.57209 25.384 6.57209 25.328V10.796ZM11.8081 8.864H13.9641C14.8974 8.864 15.7001 9.04133 16.3721 9.396C17.0441 9.75067 17.5574 10.3667 17.9121 11.244C18.2854 12.1213 18.4721 13.344 18.4721 14.912C18.4721 15.3787 18.4441 15.836 18.3881 16.284C18.3508 16.7133 18.2574 17.0587 18.1081 17.32C18.0148 17.4693 17.8468 17.6653 17.6041 17.908C17.3801 18.132 17.1094 18.3653 16.7921 18.608C16.4748 18.8507 16.1481 19.084 15.8121 19.308C15.4761 19.5133 15.1588 19.6813 14.8601 19.812C14.5801 19.9427 14.3468 20.008 14.1601 20.008C13.7681 20.008 13.3761 19.9987 12.9841 19.98C12.5921 19.9613 12.2001 19.9427 11.8081 19.924L11.8361 18.188L14.6081 18.524C14.7574 18.5427 14.8974 18.4867 15.0281 18.356C15.1588 18.2067 15.2708 17.9733 15.3641 17.656C15.4761 17.3387 15.5601 16.928 15.6161 16.424C15.6908 15.92 15.7281 15.304 15.7281 14.576C15.7281 13.0827 15.5974 11.9907 15.3361 11.3C15.0748 10.5907 14.6734 10.2547 14.1321 10.292L11.8081 10.46V8.864ZM11.4721 8.864H12.1721V23.172C12.1721 23.284 12.1254 23.4893 12.0321 23.788C11.9388 24.068 11.7894 24.3947 11.5841 24.768H10.7161V11.272C10.7161 11.0667 10.7908 10.74 10.9401 10.292C11.1081 9.844 11.2854 9.368 11.4721 8.864ZM22.295 19.868C22.295 21.0813 22.4536 22.0053 22.771 22.64C23.107 23.2747 23.4803 23.704 23.891 23.928C24.3016 24.152 24.6376 24.264 24.899 24.264C24.9736 24.264 25.151 24.264 25.431 24.264C25.711 24.2453 26.0376 24.2267 26.411 24.208C26.7843 24.1893 27.1576 24.1707 27.531 24.152C27.9043 24.1333 28.231 24.124 28.511 24.124V25.272C28.175 25.384 27.7923 25.496 27.363 25.608C26.9336 25.72 26.5043 25.8227 26.075 25.916C25.6456 26.0093 25.263 26.084 24.927 26.14C24.6096 26.2147 24.3856 26.252 24.255 26.252C23.4896 26.252 22.7523 26.0467 22.043 25.636C21.3336 25.2067 20.7456 24.5627 20.279 23.704C19.831 22.8267 19.607 21.716 19.607 20.372C19.607 19.4387 19.6723 18.58 19.803 17.796C19.9336 17.012 20.0923 16.4427 20.279 16.088C20.4283 15.864 20.6896 15.5933 21.063 15.276C21.455 14.94 21.875 14.6227 22.323 14.324C22.7896 14.0067 23.219 13.7453 23.611 13.54C24.003 13.316 24.2923 13.204 24.479 13.204C25.5056 13.204 26.3363 13.372 26.971 13.708C27.6243 14.044 28.1096 14.6787 28.427 15.612C28.7443 16.5267 28.903 17.88 28.903 19.672L21.063 20.484V19.42L26.187 18.58C26.187 17.4413 26.0656 16.5453 25.823 15.892C25.5803 15.22 25.0576 14.884 24.255 14.884C24.1056 14.884 23.9376 14.8933 23.751 14.912C23.583 14.9307 23.3963 14.9867 23.191 15.08C22.9296 15.2107 22.715 15.7147 22.547 16.592C22.379 17.4507 22.295 18.5427 22.295 19.868ZM36.7786 26.252C34.856 26.252 33.4 25.7667 32.4106 24.796C31.44 23.8253 30.9546 22.2947 30.9546 20.204C30.9546 19.364 31.02 18.5613 31.1506 17.796C31.2813 17.012 31.44 16.4427 31.6266 16.088C31.776 15.864 32.0373 15.5933 32.4106 15.276C32.8026 14.94 33.2226 14.6227 33.6706 14.324C34.1373 14.0067 34.5666 13.7453 34.9586 13.54C35.3506 13.316 35.6306 13.204 35.7986 13.204C37.684 13.204 39.1026 13.7173 40.0546 14.744C41.0253 15.752 41.5106 17.1987 41.5106 19.084C41.5106 19.9987 41.4453 20.848 41.3146 21.632C41.184 22.416 41.044 23.032 40.8946 23.48C40.7453 23.6667 40.484 23.9187 40.1106 24.236C39.7373 24.5347 39.3173 24.8427 38.8506 25.16C38.4026 25.4773 37.9826 25.7387 37.5906 25.944C37.2173 26.1493 36.9466 26.252 36.7786 26.252ZM36.9186 24.656C36.9933 24.6373 37.1426 24.572 37.3666 24.46C37.5906 24.348 37.8053 24.236 38.0106 24.124C38.2346 24.012 38.3466 23.956 38.3466 23.956C38.44 23.5267 38.5426 22.9573 38.6546 22.248C38.7666 21.5387 38.8226 20.6053 38.8226 19.448C38.8226 18.5147 38.7013 17.712 38.4586 17.04C38.2346 16.3493 37.8893 15.8173 37.4226 15.444C36.956 15.052 36.368 14.856 35.6586 14.856C35.472 14.856 35.2853 14.8747 35.0986 14.912C34.912 14.9307 34.7253 14.9867 34.5386 15.08C34.296 15.2107 34.0813 15.6867 33.8946 16.508C33.7266 17.3293 33.6426 18.4307 33.6426 19.812C33.6426 21.1373 33.8106 22.1547 34.1466 22.864C34.4826 23.5547 34.9026 24.0307 35.4066 24.292C35.9106 24.5347 36.4146 24.656 36.9186 24.656ZM49.7461 13.204C50.4555 13.204 51.1461 13.4187 51.8181 13.848C52.4901 14.2587 53.0408 14.9027 53.4701 15.78C53.8995 16.6387 54.1141 17.7587 54.1141 19.14C54.1141 20.1107 54.0488 20.9787 53.9181 21.744C53.8061 22.5093 53.6475 23.088 53.4421 23.48C53.2928 23.6853 53.0315 23.9467 52.6581 24.264C52.2848 24.5627 51.8741 24.8707 51.4261 25.188C50.9968 25.4867 50.5861 25.7387 50.1941 25.944C49.8208 26.1493 49.5501 26.252 49.3821 26.252C49.1955 26.252 48.8688 26.2147 48.4021 26.14C47.9541 26.084 47.4501 26.0187 46.8901 25.944V29.052L48.0101 29.5V30.62C47.8608 30.6573 47.6461 30.6947 47.3661 30.732C47.1048 30.788 46.8248 30.8347 46.5261 30.872C46.2275 30.928 45.9661 30.9747 45.7421 31.012C45.5181 31.0493 45.3781 31.068 45.3221 31.068C45.2661 31.068 45.1541 31.0027 44.9861 30.872C44.8368 30.7413 44.6875 30.6013 44.5381 30.452C44.4075 30.3027 44.3421 30.2 44.3421 30.144L44.4821 25.636V15.08L43.5301 14.688V13.652C43.6795 13.6147 43.8755 13.5773 44.1181 13.54C44.3795 13.484 44.6408 13.4373 44.9021 13.4C45.1635 13.344 45.3968 13.2973 45.6021 13.26C45.8075 13.2227 45.9381 13.204 45.9941 13.204C46.0501 13.204 46.1528 13.2693 46.3021 13.4C46.4515 13.5307 46.5915 13.6707 46.7221 13.82C46.8715 13.9507 46.9461 14.0533 46.9461 14.128V15.22C47.2821 14.9773 47.6555 14.6973 48.0661 14.38C48.4768 14.0627 48.8408 13.792 49.1581 13.568C49.4941 13.3253 49.6901 13.204 49.7461 13.204ZM49.5781 15.276C49.5221 15.276 49.3355 15.3413 49.0181 15.472C48.7195 15.6027 48.3835 15.7613 48.0101 15.948C47.6368 16.116 47.3101 16.2653 47.0301 16.396V24.096C47.3288 24.1893 47.7021 24.2827 48.1501 24.376C48.6168 24.4693 49.0555 24.544 49.4661 24.6C49.8955 24.6373 50.1941 24.6467 50.3621 24.628C50.5861 24.5907 50.7728 24.4227 50.9221 24.124C51.0901 23.8253 51.2115 23.312 51.2861 22.584C51.3795 21.8373 51.4261 20.8107 51.4261 19.504C51.4261 18.4587 51.3048 17.628 51.0621 17.012C50.8381 16.396 50.5768 15.9573 50.2781 15.696C49.9981 15.416 49.7648 15.276 49.5781 15.276ZM58.0676 26.252C58.0116 26.252 57.9089 26.1867 57.7596 26.056C57.6103 25.9253 57.4703 25.7853 57.3396 25.636C57.2089 25.4867 57.1436 25.384 57.1436 25.328V9.788L56.1356 9.396V8.36C56.1356 8.36 56.2103 8.35067 56.3596 8.332C56.5276 8.29467 56.7329 8.25733 56.9756 8.22C57.2183 8.164 57.4609 8.11733 57.7036 8.08C57.9649 8.024 58.1889 7.98667 58.3756 7.968C58.5623 7.93067 58.6836 7.912 58.7396 7.912C58.7956 7.912 58.8983 7.97733 59.0476 8.108C59.1969 8.23867 59.3369 8.37867 59.4676 8.528C59.5983 8.65867 59.6636 8.76133 59.6636 8.836V24.348L60.6156 24.768V25.804C60.6156 25.804 60.4943 25.832 60.2516 25.888C60.0276 25.9253 59.7569 25.972 59.4396 26.028C59.1223 26.084 58.8236 26.1307 58.5436 26.168C58.2823 26.224 58.1236 26.252 58.0676 26.252ZM65.334 19.868C65.334 21.0813 65.4927 22.0053 65.81 22.64C66.146 23.2747 66.5194 23.704 66.93 23.928C67.3407 24.152 67.6767 24.264 67.938 24.264C68.0127 24.264 68.19 24.264 68.47 24.264C68.75 24.2453 69.0767 24.2267 69.45 24.208C69.8234 24.1893 70.1967 24.1707 70.57 24.152C70.9434 24.1333 71.27 24.124 71.55 24.124V25.272C71.214 25.384 70.8314 25.496 70.402 25.608C69.9727 25.72 69.5434 25.8227 69.114 25.916C68.6847 26.0093 68.302 26.084 67.966 26.14C67.6487 26.2147 67.4247 26.252 67.294 26.252C66.5287 26.252 65.7914 26.0467 65.082 25.636C64.3727 25.2067 63.7847 24.5627 63.318 23.704C62.87 22.8267 62.646 21.716 62.646 20.372C62.646 19.4387 62.7114 18.58 62.842 17.796C62.9727 17.012 63.1314 16.4427 63.318 16.088C63.4674 15.864 63.7287 15.5933 64.102 15.276C64.494 14.94 64.914 14.6227 65.362 14.324C65.8287 14.0067 66.258 13.7453 66.65 13.54C67.042 13.316 67.3314 13.204 67.518 13.204C68.5447 13.204 69.3754 13.372 70.01 13.708C70.6634 14.044 71.1487 14.6787 71.466 15.612C71.7834 16.5267 71.942 17.88 71.942 19.672L64.102 20.484V19.42L69.226 18.58C69.226 17.4413 69.1047 16.5453 68.862 15.892C68.6194 15.22 68.0967 14.884 67.294 14.884C67.1447 14.884 66.9767 14.8933 66.79 14.912C66.622 14.9307 66.4354 14.9867 66.23 15.08C65.9687 15.2107 65.754 15.7147 65.586 16.592C65.418 17.4507 65.334 18.5427 65.334 19.868ZM79.0897 26.252C78.903 26.252 78.6044 26.2427 78.1937 26.224C77.783 26.2053 77.3164 26.1773 76.7937 26.14C76.271 26.1027 75.767 26.056 75.2817 26C74.7964 25.9627 74.3857 25.9253 74.0497 25.888L74.1057 21.856L75.5057 21.828L76.0937 23.956C76.3924 24.0493 76.7284 24.1427 77.1017 24.236C77.475 24.3293 77.8297 24.404 78.1657 24.46C78.5017 24.516 78.7537 24.544 78.9217 24.544C79.0337 24.544 79.155 24.46 79.2857 24.292C79.4164 24.124 79.5284 23.9187 79.6217 23.676C79.7337 23.4147 79.7897 23.1813 79.7897 22.976C79.7897 22.6213 79.7057 22.332 79.5377 22.108C79.3697 21.8653 79.0897 21.6227 78.6977 21.38C78.3057 21.1373 77.7737 20.8387 77.1017 20.484C76.3737 20.0733 75.7857 19.7093 75.3377 19.392C74.9084 19.056 74.591 18.7013 74.3857 18.328C74.199 17.9547 74.1057 17.5253 74.1057 17.04C74.1057 16.7973 74.115 16.5547 74.1337 16.312C74.1524 16.0507 74.1897 15.836 74.2457 15.668C74.395 15.444 74.6004 15.192 74.8617 14.912C75.1417 14.6133 75.431 14.3427 75.7297 14.1C76.047 13.8387 76.3364 13.624 76.5977 13.456C76.8777 13.288 77.0924 13.204 77.2417 13.204C77.4657 13.204 77.7737 13.2133 78.1657 13.232C78.5764 13.2507 79.015 13.2693 79.4817 13.288C79.9484 13.3067 80.3964 13.3347 80.8257 13.372C81.255 13.3907 81.6097 13.4187 81.8897 13.456L81.8057 16.872H80.2377L80.0417 15.388C79.967 15.3507 79.7897 15.3133 79.5097 15.276C79.2297 15.22 78.9124 15.1733 78.5577 15.136C78.2217 15.08 77.9044 15.0333 77.6057 14.996C77.3257 14.9587 77.139 14.94 77.0457 14.94C76.9337 14.94 76.831 14.9773 76.7377 15.052C76.6444 15.1267 76.5697 15.248 76.5137 15.416C76.4577 15.584 76.4297 15.8173 76.4297 16.116C76.4297 16.4707 76.5324 16.7787 76.7377 17.04C76.943 17.2827 77.195 17.4973 77.4937 17.684C77.811 17.8707 78.1284 18.0667 78.4457 18.272C78.7817 18.4773 79.1737 18.7107 79.6217 18.972C80.0884 19.2333 80.5364 19.5133 80.9657 19.812C81.4137 20.1107 81.7777 20.4467 82.0577 20.82C82.3377 21.1747 82.4777 21.5667 82.4777 21.996C82.4777 22.1827 82.4684 22.3973 82.4497 22.64C82.431 22.8827 82.375 23.144 82.2817 23.424C82.151 23.6667 81.955 23.9467 81.6937 24.264C81.4324 24.5813 81.143 24.8987 80.8257 25.216C80.5084 25.5147 80.191 25.7667 79.8737 25.972C79.575 26.1587 79.3137 26.252 79.0897 26.252Z" fill="#334257"/>
<path d="M90.1346 10.796L88.3986 10.376V9.284C88.6226 9.24667 88.9119 9.20933 89.2666 9.172C89.6213 9.116 89.9853 9.06933 90.3586 9.032C90.7319 8.976 91.0586 8.93867 91.3386 8.92C91.6186 8.88267 91.7866 8.864 91.8426 8.864C91.8986 8.864 92.0013 8.92933 92.1506 9.06C92.2999 9.19067 92.4306 9.34 92.5426 9.508C92.6733 9.65733 92.7386 9.76 92.7386 9.816V24.348L95.1466 24.768L94.6146 25.804C94.4279 25.8227 94.1386 25.86 93.7466 25.916C93.3733 25.972 92.9906 26.0187 92.5986 26.056C92.2066 26.112 91.8613 26.1587 91.5626 26.196C91.2826 26.2333 91.1239 26.252 91.0866 26.252C91.0306 26.252 90.9279 26.1867 90.7786 26.056C90.6293 25.9253 90.4799 25.7853 90.3306 25.636C90.1999 25.4867 90.1346 25.384 90.1346 25.328V10.796ZM95.3706 8.864H97.5266C98.4599 8.864 99.2626 9.04133 99.9346 9.396C100.607 9.75067 101.12 10.3667 101.475 11.244C101.848 12.1213 102.035 13.344 102.035 14.912C102.035 15.3787 102.007 15.836 101.951 16.284C101.913 16.7133 101.82 17.0587 101.671 17.32C101.577 17.4693 101.409 17.6653 101.167 17.908C100.943 18.132 100.672 18.3653 100.355 18.608C100.037 18.8507 99.7106 19.084 99.3746 19.308C99.0386 19.5133 98.7213 19.6813 98.4226 19.812C98.1426 19.9427 97.9093 20.008 97.7226 20.008C97.3306 20.008 96.9386 19.9987 96.5466 19.98C96.1546 19.9613 95.7626 19.9427 95.3706 19.924L95.3986 18.188L98.1706 18.524C98.3199 18.5427 98.4599 18.4867 98.5906 18.356C98.7213 18.2067 98.8333 17.9733 98.9266 17.656C99.0386 17.3387 99.1226 16.928 99.1786 16.424C99.2533 15.92 99.2906 15.304 99.2906 14.576C99.2906 13.0827 99.1599 11.9907 98.8986 11.3C98.6373 10.5907 98.2359 10.2547 97.6946 10.292L95.3706 10.46V8.864ZM95.0346 8.864H95.7346V23.172C95.7346 23.284 95.6879 23.4893 95.5946 23.788C95.5013 24.068 95.3519 24.3947 95.1466 24.768H94.2786V11.272C94.2786 11.0667 94.3533 10.74 94.5026 10.292C94.6706 9.844 94.8479 9.368 95.0346 8.864ZM104.989 26.252C104.933 26.252 104.831 26.1867 104.681 26.056C104.532 25.9253 104.383 25.7853 104.233 25.636C104.103 25.4867 104.037 25.384 104.037 25.328V15.024L103.057 14.688V13.652C103.057 13.652 103.16 13.6333 103.365 13.596C103.589 13.54 103.851 13.484 104.149 13.428C104.448 13.372 104.719 13.3253 104.961 13.288C105.223 13.232 105.381 13.204 105.437 13.204C105.493 13.204 105.615 13.2787 105.801 13.428C105.988 13.5773 106.156 13.736 106.305 13.904C106.473 14.072 106.557 14.184 106.557 14.24L106.501 15.332C106.763 15.0707 107.005 14.8187 107.229 14.576C107.472 14.3147 107.696 14.0813 107.901 13.876C108.107 13.6707 108.275 13.512 108.405 13.4C108.555 13.2693 108.648 13.204 108.685 13.204C108.891 13.204 109.199 13.26 109.609 13.372C110.02 13.484 110.337 13.5773 110.561 13.652C110.599 13.764 110.636 13.9133 110.673 14.1C110.711 14.2867 110.729 14.4267 110.729 14.52C110.729 14.576 110.692 14.6787 110.617 14.828C110.561 14.9773 110.487 15.136 110.393 15.304C110.319 15.472 110.235 15.6213 110.141 15.752C110.067 15.8827 110.011 15.9573 109.973 15.976C109.843 15.92 109.693 15.864 109.525 15.808C109.357 15.752 109.18 15.7053 108.993 15.668C108.825 15.6307 108.657 15.612 108.489 15.612C108.433 15.612 108.34 15.64 108.209 15.696C108.079 15.7333 107.929 15.7987 107.761 15.892C107.593 15.9667 107.407 16.06 107.201 16.172C107.015 16.2653 106.809 16.3773 106.585 16.508V24.236L108.013 24.656V25.804C108.013 25.804 107.92 25.8227 107.733 25.86C107.547 25.8787 107.313 25.916 107.033 25.972C106.753 26.0093 106.464 26.0467 106.165 26.084C105.867 26.14 105.605 26.1773 105.381 26.196C105.176 26.2333 105.045 26.252 104.989 26.252ZM117.388 26.252C115.465 26.252 114.009 25.7667 113.02 24.796C112.049 23.8253 111.564 22.2947 111.564 20.204C111.564 19.364 111.629 18.5613 111.76 17.796C111.891 17.012 112.049 16.4427 112.236 16.088C112.385 15.864 112.647 15.5933 113.02 15.276C113.412 14.94 113.832 14.6227 114.28 14.324C114.747 14.0067 115.176 13.7453 115.568 13.54C115.96 13.316 116.24 13.204 116.408 13.204C118.293 13.204 119.712 13.7173 120.664 14.744C121.635 15.752 122.12 17.1987 122.12 19.084C122.12 19.9987 122.055 20.848 121.924 21.632C121.793 22.416 121.653 23.032 121.504 23.48C121.355 23.6667 121.093 23.9187 120.72 24.236C120.347 24.5347 119.927 24.8427 119.46 25.16C119.012 25.4773 118.592 25.7387 118.2 25.944C117.827 26.1493 117.556 26.252 117.388 26.252ZM117.528 24.656C117.603 24.6373 117.752 24.572 117.976 24.46C118.2 24.348 118.415 24.236 118.62 24.124C118.844 24.012 118.956 23.956 118.956 23.956C119.049 23.5267 119.152 22.9573 119.264 22.248C119.376 21.5387 119.432 20.6053 119.432 19.448C119.432 18.5147 119.311 17.712 119.068 17.04C118.844 16.3493 118.499 15.8173 118.032 15.444C117.565 15.052 116.977 14.856 116.268 14.856C116.081 14.856 115.895 14.8747 115.708 14.912C115.521 14.9307 115.335 14.9867 115.148 15.08C114.905 15.2107 114.691 15.6867 114.504 16.508C114.336 17.3293 114.252 18.4307 114.252 19.812C114.252 21.1373 114.42 22.1547 114.756 22.864C115.092 23.5547 115.512 24.0307 116.016 24.292C116.52 24.5347 117.024 24.656 117.528 24.656ZM123.804 14.828V14.044L125.12 13.428V12.252C125.12 12.028 125.213 11.7387 125.4 11.384C125.586 11.0107 125.82 10.628 126.1 10.236C126.38 9.844 126.678 9.47067 126.996 9.116C127.332 8.76133 127.64 8.472 127.92 8.248C128.218 8.024 128.452 7.912 128.62 7.912C128.694 7.912 128.862 7.92133 129.124 7.94C129.385 7.94 129.684 7.94933 130.02 7.968C130.356 7.98667 130.682 8.00533 131 8.024C131.317 8.04267 131.569 8.06133 131.756 8.08C131.886 8.15467 132.017 8.29467 132.148 8.5C132.297 8.68667 132.372 8.82667 132.372 8.92C132.372 8.95733 132.334 9.07867 132.26 9.284C132.185 9.47067 132.101 9.66667 132.008 9.872C131.914 10.0773 131.849 10.2267 131.812 10.32C131.662 10.2827 131.41 10.2267 131.056 10.152C130.72 10.0773 130.356 10.012 129.964 9.956C129.572 9.88133 129.208 9.82533 128.872 9.788C128.554 9.732 128.34 9.704 128.228 9.704C128.153 9.704 128.069 9.77867 127.976 9.928C127.901 10.0773 127.836 10.2733 127.78 10.516C127.724 10.7587 127.696 11.0107 127.696 11.272V13.456H133.212C133.286 13.456 133.408 13.5307 133.576 13.68C133.762 13.8107 133.93 13.96 134.08 14.128C134.248 14.2773 134.332 14.3987 134.332 14.492V24.488L135.312 24.768V25.804C135.312 25.804 135.2 25.832 134.976 25.888C134.77 25.9253 134.518 25.972 134.22 26.028C133.921 26.084 133.641 26.1307 133.38 26.168C133.137 26.224 132.988 26.252 132.932 26.252C132.876 26.252 132.754 26.1773 132.568 26.028C132.381 25.8787 132.204 25.72 132.036 25.552C131.886 25.384 131.812 25.272 131.812 25.216V14.968H127.668L127.584 26.812L127.892 29.584C127.593 29.7333 127.313 29.8547 127.052 29.948C126.809 30.0413 126.604 30.1067 126.436 30.144C126.268 30.2 126.146 30.228 126.072 30.228C126.016 30.228 125.913 30.1627 125.764 30.032C125.614 29.9013 125.465 29.7613 125.316 29.612C125.185 29.4627 125.12 29.36 125.12 29.304V14.884L123.804 14.828ZM139.142 26.252C139.086 26.252 138.983 26.1867 138.834 26.056C138.684 25.9253 138.544 25.7853 138.414 25.636C138.283 25.4867 138.218 25.384 138.218 25.328V9.788L137.21 9.396V8.36C137.21 8.36 137.284 8.35067 137.434 8.332C137.602 8.29467 137.807 8.25733 138.05 8.22C138.292 8.164 138.535 8.11733 138.778 8.08C139.039 8.024 139.263 7.98667 139.45 7.968C139.636 7.93067 139.758 7.912 139.814 7.912C139.87 7.912 139.972 7.97733 140.122 8.108C140.271 8.23867 140.411 8.37867 140.542 8.528C140.672 8.65867 140.738 8.76133 140.738 8.836V24.348L141.69 24.768V25.804C141.69 25.804 141.568 25.832 141.326 25.888C141.102 25.9253 140.831 25.972 140.514 26.028C140.196 26.084 139.898 26.1307 139.618 26.168C139.356 26.224 139.198 26.252 139.142 26.252ZM146.408 19.868C146.408 21.0813 146.567 22.0053 146.884 22.64C147.22 23.2747 147.594 23.704 148.004 23.928C148.415 24.152 148.751 24.264 149.012 24.264C149.087 24.264 149.264 24.264 149.544 24.264C149.824 24.2453 150.151 24.2267 150.524 24.208C150.898 24.1893 151.271 24.1707 151.644 24.152C152.018 24.1333 152.344 24.124 152.624 24.124V25.272C152.288 25.384 151.906 25.496 151.476 25.608C151.047 25.72 150.618 25.8227 150.188 25.916C149.759 26.0093 149.376 26.084 149.04 26.14C148.723 26.2147 148.499 26.252 148.368 26.252C147.603 26.252 146.866 26.0467 146.156 25.636C145.447 25.2067 144.859 24.5627 144.392 23.704C143.944 22.8267 143.72 21.716 143.72 20.372C143.72 19.4387 143.786 18.58 143.916 17.796C144.047 17.012 144.206 16.4427 144.392 16.088C144.542 15.864 144.803 15.5933 145.176 15.276C145.568 14.94 145.988 14.6227 146.436 14.324C146.903 14.0067 147.332 13.7453 147.724 13.54C148.116 13.316 148.406 13.204 148.592 13.204C149.619 13.204 150.45 13.372 151.084 13.708C151.738 14.044 152.223 14.6787 152.54 15.612C152.858 16.5267 153.016 17.88 153.016 19.672L145.176 20.484V19.42L150.3 18.58C150.3 17.4413 150.179 16.5453 149.936 15.892C149.694 15.22 149.171 14.884 148.368 14.884C148.219 14.884 148.051 14.8933 147.864 14.912C147.696 14.9307 147.51 14.9867 147.304 15.08C147.043 15.2107 146.828 15.7147 146.66 16.592C146.492 17.4507 146.408 18.5427 146.408 19.868Z" fill="#548CA8"/>
<rect x="139" width="5" height="5" fill="#334257"/>
<rect x="130" width="5" height="5" fill="#334257"/>
</svg>
