<svg width="170" height="31" viewBox="0 0 170 31" fill="none" xmlns="http://www.w3.org/2000/svg">
<rect width="170" height="31" rx="3" fill="#334257" fill-opacity="0.26"/>
<path d="M14.2 19.4C11.32 19.4 9 17.08 9 14.2C9 11.32 11.32 9 14.2 9C17.08 9 19.4 11.32 19.4 14.2C19.4 17.08 17.08 19.4 14.2 19.4ZM14.2 9.8C11.76 9.8 9.8 11.76 9.8 14.2C9.8 16.64 11.76 18.6 14.2 18.6C16.64 18.6 18.6 16.64 18.6 14.2C18.6 11.76 16.64 9.8 14.2 9.8Z" fill="#334257"/>
<path d="M18.0729 17.5068L21.6649 21.0988L21.0993 21.6644L17.5073 18.0724L18.0729 17.5068Z" fill="#334257"/>
<path d="M32.8659 9.083C33.5572 9.083 34.1579 9.19633 34.6679 9.423C35.1892 9.64967 35.6766 9.98967 36.1299 10.443L35.3309 11.344C34.9456 11.004 34.5602 10.7547 34.1749 10.596C33.8009 10.426 33.3929 10.341 32.9509 10.341C32.3842 10.341 31.9252 10.4997 31.5739 10.817C31.2339 11.123 31.0639 11.531 31.0639 12.041C31.0639 12.381 31.1319 12.6757 31.2679 12.925C31.4039 13.163 31.6362 13.384 31.9649 13.588C32.2936 13.7807 32.7582 13.979 33.3589 14.183C34.0502 14.4323 34.6169 14.6987 35.0589 14.982C35.5009 15.2653 35.8409 15.628 36.0789 16.07C36.3169 16.512 36.4359 17.0673 36.4359 17.736C36.4359 18.4047 36.2829 19.0053 35.9769 19.538C35.6709 20.0593 35.2289 20.473 34.6509 20.779C34.0842 21.0737 33.4156 21.221 32.6449 21.221C31.2282 21.221 30.0212 20.711 29.0239 19.691L29.8569 18.79C30.2762 19.164 30.7012 19.453 31.1319 19.657C31.5739 19.8497 32.0612 19.946 32.5939 19.946C33.2626 19.946 33.7952 19.759 34.1919 19.385C34.5999 18.9997 34.8039 18.4727 34.8039 17.804C34.8039 17.226 34.6396 16.767 34.3109 16.427C33.9936 16.087 33.4042 15.7697 32.5429 15.475C31.4436 15.0897 30.6502 14.642 30.1629 14.132C29.6869 13.622 29.4489 12.959 29.4489 12.143C29.4489 11.565 29.5906 11.0437 29.8739 10.579C30.1686 10.103 30.5766 9.73467 31.0979 9.474C31.6192 9.21333 32.2086 9.083 32.8659 9.083ZM44.7335 16.257C44.7335 16.495 44.7222 16.7613 44.6995 17.056H39.4975C39.5428 18.0987 39.7525 18.8523 40.1265 19.317C40.5005 19.7703 41.0105 19.997 41.6565 19.997C42.0645 19.997 42.4272 19.9347 42.7445 19.81C43.0732 19.6853 43.4132 19.4813 43.7645 19.198L44.4445 20.099C43.6058 20.847 42.6538 21.221 41.5885 21.221C40.4212 21.221 39.5145 20.8187 38.8685 20.014C38.2338 19.198 37.9165 18.059 37.9165 16.597C37.9165 15.135 38.2225 13.979 38.8345 13.129C39.4465 12.2677 40.2965 11.837 41.3845 11.837C42.4612 11.837 43.2885 12.2223 43.8665 12.993C44.4445 13.7523 44.7335 14.8403 44.7335 16.257ZM43.2545 15.798C43.2545 13.928 42.6368 12.993 41.4015 12.993C40.8348 12.993 40.3872 13.231 40.0585 13.707C39.7298 14.1717 39.5428 14.931 39.4975 15.985H43.2545V15.798ZM52.2875 18.96C52.2875 19.3227 52.3385 19.5947 52.4405 19.776C52.5425 19.946 52.7011 20.0763 52.9165 20.167L52.5935 21.204C52.1515 21.136 51.8058 21 51.5565 20.796C51.3071 20.592 51.1315 20.2803 51.0295 19.861C50.4515 20.7677 49.6411 21.221 48.5985 21.221C47.8051 21.221 47.1761 20.9773 46.7115 20.49C46.2468 19.9913 46.0145 19.3283 46.0145 18.501C46.0145 17.549 46.3261 16.8237 46.9495 16.325C47.5728 15.8263 48.4625 15.577 49.6185 15.577H50.7745V14.812C50.7745 14.1887 50.6441 13.741 50.3835 13.469C50.1341 13.1857 49.7205 13.044 49.1425 13.044C48.5191 13.044 47.7938 13.2027 46.9665 13.52L46.5925 12.449C47.5898 12.041 48.5191 11.837 49.3805 11.837C51.3185 11.837 52.2875 12.806 52.2875 14.744V18.96ZM48.9555 20.065C49.7488 20.065 50.3551 19.6003 50.7745 18.671V16.563H49.7885C48.3151 16.563 47.5785 17.1807 47.5785 18.416C47.5785 18.9487 47.6975 19.3567 47.9355 19.64C48.1735 19.9233 48.5135 20.065 48.9555 20.065ZM58.7175 11.854C59.0121 11.854 59.2671 11.888 59.4825 11.956L59.2275 13.435C59.0121 13.367 58.7798 13.333 58.5305 13.333C58.0318 13.333 57.6238 13.5313 57.3065 13.928C57.0005 14.3247 56.7568 14.931 56.5755 15.747V21H55.0455V12.058H56.3715L56.4905 13.826C56.9325 12.5113 57.6748 11.854 58.7175 11.854ZM63.6018 11.837C64.0778 11.837 64.5141 11.9163 64.9108 12.075C65.3074 12.2337 65.6871 12.4773 66.0498 12.806L65.3698 13.724C65.0978 13.5087 64.8258 13.35 64.5538 13.248C64.2818 13.1347 63.9871 13.078 63.6698 13.078C63.0011 13.078 62.4798 13.3613 62.1058 13.928C61.7431 14.4947 61.5618 15.3787 61.5618 16.58C61.5618 18.824 62.2644 19.946 63.6698 19.946C63.9871 19.946 64.2761 19.895 64.5368 19.793C64.7974 19.6797 65.0751 19.5153 65.3698 19.3L66.0838 20.235C65.3584 20.8923 64.5368 21.221 63.6188 21.221C62.4741 21.221 61.5731 20.8243 60.9158 20.031C60.2698 19.2377 59.9468 18.093 59.9468 16.597C59.9468 15.6223 60.0941 14.778 60.3888 14.064C60.6948 13.35 61.1198 12.8003 61.6638 12.415C62.2191 12.0297 62.8651 11.837 63.6018 11.837ZM71.7573 11.837C72.4713 11.837 73.0266 12.075 73.4233 12.551C73.8313 13.027 74.0353 13.673 74.0353 14.489V21H72.5053V14.676C72.5053 14.098 72.4033 13.6843 72.1993 13.435C72.0066 13.1743 71.7176 13.044 71.3323 13.044C70.5843 13.044 69.9043 13.5767 69.2923 14.642V21H67.7623V8.454L69.2923 8.284V13.333C69.6209 12.8457 69.9836 12.4773 70.3803 12.228C70.7769 11.9673 71.2359 11.837 71.7573 11.837Z" fill="#334257"/>
</svg>
