<svg width="373" height="241" viewBox="0 0 373 241" fill="none" xmlns="http://www.w3.org/2000/svg">
<g clip-path="url(#clip0_212_1302)">
<path d="M167.691 0.138794H0.102539V89.9446H167.691V0.138794Z" fill="#F2F2F2"/>
<path d="M167.588 0H0V10.411H167.588V0Z" fill="#E6E6E6"/>
<path d="M164.554 14.6321H3.89258V85.2107H164.554V14.6321Z" fill="white"/>
<path d="M15.8808 6.90109C16.8128 6.90109 17.5683 6.13004 17.5683 5.17891C17.5683 4.22777 16.8128 3.45673 15.8808 3.45673C14.9489 3.45673 14.1934 4.22777 14.1934 5.17891C14.1934 6.13004 14.9489 6.90109 15.8808 6.90109Z" fill="white"/>
<path d="M22.2861 6.90109C23.2181 6.90109 23.9736 6.13004 23.9736 5.17891C23.9736 4.22777 23.2181 3.45673 22.2861 3.45673C21.3541 3.45673 20.5986 4.22777 20.5986 5.17891C20.5986 6.13004 21.3541 6.90109 22.2861 6.90109Z" fill="white"/>
<path d="M9.45896 6.90109C10.3909 6.90109 11.1464 6.13004 11.1464 5.17891C11.1464 4.22777 10.3909 3.45673 9.45896 3.45673C8.52699 3.45673 7.77148 4.22777 7.77148 5.17891C7.77148 6.13004 8.52699 6.90109 9.45896 6.90109Z" fill="white"/>
<path d="M132.305 35.3149H39.9189V39.5171H132.305V35.3149Z" fill="#F2F2F2"/>
<path d="M72.8587 45.8203H39.9189V50.0224H72.8587V45.8203Z" fill="#F2F2F2"/>
<path d="M105.541 56.3256H39.9189V60.5278H105.541V56.3256Z" fill="#F2F2F2"/>
<path d="M195.758 117.755H38.0479V202.268H195.758V117.755Z" fill="#F2F2F2"/>
<path d="M195.662 117.625H37.9512V127.422H195.662V117.625Z" fill="#E6E6E6"/>
<path d="M192.806 130.829H41.373V197.964H192.806V130.829Z" fill="white"/>
<path d="M52.8966 124.119C53.7736 124.119 54.4846 123.393 54.4846 122.498C54.4846 121.603 53.7736 120.878 52.8966 120.878C52.0196 120.878 51.3086 121.603 51.3086 122.498C51.3086 123.393 52.0196 124.119 52.8966 124.119Z" fill="white"/>
<path d="M58.924 124.119C59.801 124.119 60.512 123.393 60.512 122.498C60.512 121.603 59.801 120.878 58.924 120.878C58.0469 120.878 57.3359 121.603 57.3359 122.498C57.3359 123.393 58.0469 124.119 58.924 124.119Z" fill="white"/>
<path d="M46.8527 124.119C47.7297 124.119 48.4407 123.393 48.4407 122.498C48.4407 121.603 47.7297 120.878 46.8527 120.878C45.9756 120.878 45.2646 121.603 45.2646 122.498C45.2646 123.393 45.9756 124.119 46.8527 124.119Z" fill="white"/>
<path d="M301.041 37.0372H113.969V137.284H301.041V37.0372Z" fill="#E6E6E6"/>
<path d="M300.926 36.8823H113.854V48.5037H300.926V36.8823Z" fill="#6C63FF"/>
<path d="M296.541 52.0732H118.169V131.689H296.541V52.0732Z" fill="white"/>
<path d="M131.582 44.5857C132.622 44.5857 133.466 43.725 133.466 42.6633C133.466 41.6015 132.622 40.7408 131.582 40.7408C130.542 40.7408 129.698 41.6015 129.698 42.6633C129.698 43.725 130.542 44.5857 131.582 44.5857Z" fill="white"/>
<path d="M138.732 44.5857C139.773 44.5857 140.616 43.725 140.616 42.6633C140.616 41.6015 139.773 40.7408 138.732 40.7408C137.692 40.7408 136.849 41.6015 136.849 42.6633C136.849 43.725 137.692 44.5857 138.732 44.5857Z" fill="white"/>
<path d="M124.413 44.5857C125.453 44.5857 126.297 43.725 126.297 42.6633C126.297 41.6015 125.453 40.7408 124.413 40.7408C123.373 40.7408 122.529 41.6015 122.529 42.6633C122.529 43.725 123.373 44.5857 124.413 44.5857Z" fill="white"/>
<path d="M275.831 72.5735H139.065V78.7943H275.831V72.5735Z" fill="#E6E6E6"/>
<path d="M187.829 88.1253H139.065V94.3461H187.829V88.1253Z" fill="#E6E6E6"/>
<path d="M236.211 103.677H139.065V109.898H236.211V103.677Z" fill="#E6E6E6"/>
<path d="M172.144 150.755H69.0176V155.445H172.144V150.755Z" fill="#F2F2F2"/>
<path d="M105.787 162.481H69.0176V167.172H105.787V162.481Z" fill="#F2F2F2"/>
<path d="M142.269 174.208H69.0176V178.899H142.269V174.208Z" fill="#F2F2F2"/>
<path d="M211.83 38.3943L203.037 43.3653L212.414 39.9905L211.83 38.3943Z" fill="white"/>
<path d="M215.793 43.286C217.081 42.8588 217.442 40.3649 216.599 37.7156C215.756 35.0663 214.028 33.2648 212.739 33.692C211.451 34.1191 211.09 36.613 211.933 39.2623C212.776 41.9116 214.504 43.7131 215.793 43.286Z" fill="#3F3D56"/>
<path d="M214.831 35.5763L220.663 33.428L221.903 36.9319L216.258 40.8228L214.831 35.5763Z" fill="#3F3D56"/>
<path d="M219.211 37.2965C219.441 38.111 219.842 38.8643 220.388 39.5032C220.933 40.1421 221.61 40.6512 222.369 40.9946C223.128 41.338 223.952 41.5073 224.782 41.4906C225.612 41.474 226.429 41.2717 227.174 40.8981L241.52 55.3905L243.576 44.8931L229.638 32.7403C228.94 31.504 227.822 30.5719 226.496 30.1206C225.169 29.6694 223.727 29.7303 222.442 30.292C221.156 30.8536 220.118 31.8768 219.522 33.1678C218.927 34.4588 218.816 35.9278 219.211 37.2965Z" fill="#A0616A"/>
<path d="M328.535 128.732C329.083 128.095 329.487 127.343 329.718 126.529C329.95 125.715 330.005 124.86 329.877 124.022C329.75 123.185 329.444 122.386 328.982 121.682C328.52 120.978 327.911 120.386 327.201 119.948L331.395 99.7972L321.629 103.705L319.144 122.242C318.502 123.509 318.337 124.973 318.682 126.356C319.027 127.738 319.857 128.944 321.015 129.744C322.172 130.544 323.577 130.883 324.963 130.696C326.349 130.51 327.62 129.811 328.535 128.732Z" fill="#A0616A"/>
<path d="M281.277 233.751H274.351L271.057 206.49L281.277 206.491L281.277 233.751Z" fill="#A0616A"/>
<path d="M283.042 240.602L260.713 240.601V240.313C260.713 239.148 260.938 237.995 261.374 236.919C261.811 235.843 262.451 234.865 263.258 234.041C264.066 233.217 265.024 232.564 266.078 232.118C267.133 231.673 268.263 231.443 269.404 231.443H269.405L283.043 231.444L283.042 240.602Z" fill="#2F2E41"/>
<path d="M315.168 233.751H308.243L304.948 206.49L315.169 206.491L315.168 233.751Z" fill="#A0616A"/>
<path d="M316.934 240.602L294.604 240.601V240.313C294.604 239.148 294.829 237.995 295.266 236.919C295.703 235.842 296.343 234.865 297.15 234.041C297.957 233.217 298.915 232.564 299.97 232.118C301.024 231.673 302.154 231.443 303.296 231.443H303.296L316.934 231.444L316.934 240.602Z" fill="#2F2E41"/>
<path d="M281.997 219.517L272.194 219.116C271.525 219.087 270.895 218.79 270.438 218.29C269.982 217.791 269.737 217.128 269.755 216.445L272.517 123.989L272.697 123.923C289.878 117.58 304.091 118.06 316.15 125.387L316.285 125.469L317.939 215.517C317.946 215.862 317.885 216.205 317.76 216.525C317.635 216.845 317.449 217.137 317.212 217.383C316.975 217.629 316.693 217.825 316.382 217.958C316.07 218.092 315.736 218.16 315.398 218.16H307.131C306.543 218.159 305.972 217.95 305.518 217.568C305.063 217.187 304.752 216.656 304.637 216.067L293.377 157.606C293.338 157.404 293.23 157.223 293.071 157.095C292.913 156.967 292.716 156.901 292.514 156.909C292.312 156.916 292.12 156.997 291.972 157.136C291.823 157.276 291.728 157.465 291.704 157.669L284.622 217.237C284.544 217.865 284.245 218.443 283.78 218.863C283.316 219.282 282.718 219.515 282.097 219.518C282.064 219.518 282.03 219.518 281.997 219.517Z" fill="#2F2E41"/>
<path d="M298.189 41.1734C304.912 37.4225 307.383 28.8195 303.708 21.958C300.032 15.0965 291.603 12.5748 284.88 16.3257C278.156 20.0766 275.685 28.6796 279.361 35.5411C283.036 42.4026 291.466 44.9242 298.189 41.1734Z" fill="#A0616A"/>
<path d="M229.894 42.8338C230.117 42.3569 230.476 41.9604 230.924 41.6973L235.108 39.2454C235.562 38.981 236.084 38.8652 236.605 38.9136C237.125 38.962 237.618 39.1722 238.017 39.5159L251.919 51.5351L283.871 60.6776C284.845 61.1435 285.72 61.8009 286.445 62.6121C287.17 63.4233 287.732 64.3725 288.098 65.4053C288.463 66.4382 288.626 67.5344 288.576 68.6314C288.526 69.7284 288.265 70.8046 287.808 71.7986C287.35 72.7925 286.705 73.6847 285.909 74.4241C285.114 75.1635 284.183 75.7356 283.171 76.1077C282.158 76.4798 281.084 76.6446 280.009 76.5927C278.934 76.5409 277.88 76.2733 276.907 75.8053L256.496 71.116C250.302 69.6937 244.824 66.0234 241.082 60.7877L230.137 45.476C229.926 45.1815 229.779 44.8451 229.705 44.4888C229.63 44.1324 229.63 43.7639 229.704 43.4075C229.745 43.2092 229.809 43.0167 229.894 42.8338Z" fill="#3F3D56"/>
<path d="M327.942 115.686C327.455 115.865 326.927 115.888 326.427 115.753L321.764 114.487C321.259 114.349 320.809 114.056 320.473 113.648C320.137 113.24 319.932 112.736 319.885 112.205L318.306 93.681L301.923 64.2292C301.553 63.1982 301.385 62.1027 301.43 61.0055C301.475 59.9083 301.731 58.8308 302.184 57.8347C302.636 56.8386 303.277 55.9433 304.069 55.2C304.862 54.4568 305.789 53.8802 306.8 53.5032C307.811 53.1261 308.884 52.9561 309.959 53.0027C311.034 53.0494 312.09 53.3118 313.065 53.775C314.041 54.2382 314.918 54.8931 315.645 55.7023C316.373 56.5115 316.937 57.459 317.305 58.4908L328.563 76.4869C331.981 81.9483 333.339 88.4908 332.384 94.8974L329.593 113.636C329.539 113.996 329.412 114.341 329.219 114.647C329.026 114.954 328.772 115.216 328.473 115.416C328.307 115.527 328.129 115.618 327.942 115.686Z" fill="#3F3D56"/>
<path d="M276.359 53.8941C278.742 51.2271 281.681 49.1402 284.96 47.7873C288.239 46.4343 291.774 45.85 295.303 46.0773C295.535 46.0919 295.766 46.1084 295.996 46.1268H295.996C299.342 46.3968 302.592 47.3925 305.53 49.0474C308.468 50.7024 311.026 52.9783 313.033 55.7232C315.073 58.5065 316.508 61.7022 317.241 65.0967C317.974 68.4912 317.988 72.0063 317.283 75.407C314.593 88.4032 315.274 101.891 319.258 114.536L322.98 126.331C323.099 126.708 323.132 127.109 323.076 127.502C323.019 127.895 322.875 128.269 322.655 128.596C322.434 128.923 322.143 129.194 321.803 129.389C321.464 129.583 321.085 129.694 320.697 129.716L301.669 130.76L296.8 122.176V131.027L273.674 132.296C273.628 132.299 273.582 132.3 273.537 132.3C273.186 132.3 272.839 132.225 272.517 132.082C272.196 131.938 271.907 131.728 271.669 131.464C271.431 131.201 271.249 130.89 271.135 130.552C271.02 130.213 270.976 129.854 271.004 129.497L273.618 96.4176L270.339 73.9505C269.809 70.3608 270.074 66.6953 271.116 63.2241C272.158 59.753 273.95 56.5646 276.359 53.8941Z" fill="#3F3D56"/>
<path d="M301.177 42.2664C299.892 43.0206 294.815 43.5208 294.453 42.0541L294.446 42.0218C294.194 40.9472 294.403 39.825 294.475 38.7226C294.547 37.6201 294.442 36.409 293.706 35.5984C292.335 34.0874 289.895 34.8884 287.911 34.5063C286.75 34.2417 285.722 33.5541 285.022 32.5723C284.321 31.5905 283.995 30.3817 284.104 29.1722C284.132 28.943 284.177 28.7136 284.226 28.4844C284.35 27.9035 284.341 27.3011 284.198 26.7246C284.056 26.1482 283.784 25.6132 283.405 25.1618C283.026 24.7104 282.55 24.3548 282.013 24.123C281.477 23.8912 280.895 23.7894 280.314 23.8256C278.309 23.9426 276.146 24.5623 274.488 23.0473C273.206 21.8758 272.893 18.8261 273.456 17.1664C274.403 14.3772 280.468 12.917 283.116 12.1143C286.392 11.1485 289.837 10.9397 293.201 11.5031C296.565 12.0665 299.764 13.3879 302.565 15.3712C304.238 16.5744 305.8 18.0863 306.513 20.044C307.225 22.0017 306.882 24.4716 305.274 25.7639C306.52 27.1104 307.398 28.7674 307.819 30.569C308.239 32.3706 308.189 34.2535 307.672 36.029C306.878 38.6401 303.089 41.1436 301.177 42.2664Z" fill="#2F2E41"/>
<path d="M372.578 241H211.917C211.805 241 211.698 240.955 211.619 240.874C211.54 240.793 211.495 240.684 211.495 240.57C211.495 240.456 211.54 240.346 211.619 240.265C211.698 240.185 211.805 240.139 211.917 240.139H372.578C372.69 240.139 372.797 240.185 372.876 240.265C372.956 240.346 373 240.456 373 240.57C373 240.684 372.956 240.793 372.876 240.874C372.797 240.955 372.69 241 372.578 241Z" fill="#3F3D56"/>
</g>
<defs>
<clipPath id="clip0_212_1302">
<rect width="373" height="241" fill="white"/>
</clipPath>
</defs>
</svg>
