<svg width="248" height="286" viewBox="0 0 248 286" fill="none" xmlns="http://www.w3.org/2000/svg">
<g clip-path="url(#clip0_212_1153)">
<path d="M64.1368 239.662C63.7776 239.033 62.224 239.707 61.9384 239.136C61.6538 238.567 63.0973 237.7 63.922 235.719C64.0707 235.362 65.0079 233.111 64.3141 232.416C62.999 231.1 56.9811 236.533 54.8751 234.755C54.4129 234.365 54.09 233.586 52.6912 232.321C52.1347 231.818 51.7982 231.591 51.4726 231.675C51.0105 231.795 50.9739 232.438 50.4784 233.702C49.7353 235.597 49.2957 235.482 48.8628 236.994C48.5414 238.117 48.6148 238.769 48.2366 238.896C47.7014 239.076 47.2088 237.886 46.5305 237.992C45.8383 238.101 45.4199 239.487 45.2877 240.525C45.0397 242.473 45.728 243.758 46.1094 245.109C46.524 246.578 46.77 248.811 45.8127 251.972L36.3369 279.716C38.4289 274.023 44.4861 258.417 47.0313 252.618C47.7661 250.944 48.5774 249.246 50.2432 248.576C51.847 247.931 54.0495 248.316 56.8576 247.613C57.1855 247.531 58.0956 247.29 58.2101 246.734C58.3048 246.274 57.7695 246.017 57.8518 245.587C57.9621 245.009 59.0148 245.002 60.3084 244.335C61.2205 243.865 61.7888 243.306 62.2775 242.826C62.4248 242.681 64.6149 240.5 64.1368 239.662H64.1368L64.1368 239.662H64.1368Z" fill="#F2F2F2"/>
<path d="M26.8564 254.268C26.4556 254.269 26.3255 255.256 25.9734 255.237C25.6225 255.218 25.6295 254.232 24.932 253.239C24.8062 253.061 24.0135 251.933 23.4853 252.087C22.4841 252.377 23.3137 257.014 21.8663 257.575C21.5487 257.699 21.0876 257.639 20.0867 257.987C19.6886 258.126 19.4842 258.232 19.4301 258.422C19.3535 258.693 19.6464 258.897 20.1003 259.514C20.7809 260.44 20.6 260.631 21.1892 261.288C21.6266 261.776 21.956 261.927 21.9069 262.156C21.8374 262.481 21.133 262.389 20.9877 262.766C20.8394 263.15 21.3733 263.763 21.8253 264.13C22.6736 264.819 23.4792 264.838 24.2275 265.034C25.0407 265.246 26.1665 265.765 27.3835 267.165L37.753 280.003C35.6678 277.294 30.0447 269.702 28.0401 266.73C27.4614 265.872 26.8935 264.969 27.0576 263.926C27.2156 262.921 28.0331 261.909 28.5112 260.274C28.5671 260.083 28.716 259.55 28.4864 259.331C28.2965 259.15 28.0208 259.349 27.8411 259.183C27.6001 258.96 27.9005 258.421 27.9589 257.569C28.0001 256.968 27.9001 256.517 27.814 256.129C27.7881 256.012 27.39 254.265 26.8564 254.268V254.268L26.8564 254.268Z" fill="#F2F2F2"/>
<path d="M34.8528 256.133L34.6113 253.893L34.7217 253.723C35.2322 252.938 35.4925 252.171 35.4956 251.443C35.4961 251.327 35.4909 251.211 35.4857 251.093C35.4649 250.626 35.4389 250.045 35.7303 249.368C35.8938 248.99 36.3528 248.116 37.043 248.225C37.2288 248.252 37.3693 248.34 37.476 248.444C37.4916 248.418 37.5077 248.392 37.5249 248.364C37.7399 248.023 37.9101 247.877 38.074 247.737C38.2 247.629 38.3301 247.517 38.5341 247.253C38.6236 247.138 38.6934 247.036 38.7522 246.95C38.9307 246.692 39.1639 246.384 39.575 246.389C40.0143 246.411 40.2444 246.788 40.3969 247.038C40.6691 247.484 40.7924 247.805 40.8741 248.018C40.9038 248.096 40.9376 248.184 40.9548 248.211C41.0964 248.427 42.2471 248.225 42.6807 248.151C43.6545 247.982 44.4971 247.836 44.8443 248.475C45.0931 248.931 44.9083 249.535 44.2785 250.317C44.0823 250.56 43.8736 250.745 43.6883 250.89C43.8418 250.985 43.9792 251.131 44.0349 251.361C44.1661 251.904 43.7169 252.448 42.7004 252.98C42.448 253.113 42.1082 253.29 41.6319 253.376C41.4076 253.416 41.2057 253.426 41.0329 253.431C41.0292 253.535 41.0058 253.647 40.9449 253.763C40.7664 254.104 40.3948 254.266 39.8348 254.227C39.2185 254.193 38.7111 254.071 38.2635 253.964C37.8726 253.871 37.5358 253.792 37.2715 253.811C36.7812 253.852 36.4033 254.259 35.9599 254.788L34.8528 256.133H34.8528L34.8528 256.133Z" fill="#F2F2F2"/>
<path d="M35.9735 242.795L33.9495 243.606L33.7634 243.538C32.9029 243.224 32.123 243.157 31.4446 243.338C31.3367 243.367 31.2303 243.402 31.1219 243.437C30.6922 243.576 30.1581 243.75 29.4538 243.629C29.061 243.56 28.131 243.32 28.0566 242.599C28.0347 242.406 28.0816 242.242 28.1512 242.108C28.123 242.099 28.0948 242.089 28.0643 242.079C27.6926 241.95 27.5135 241.816 27.341 241.686C27.2083 241.587 27.0716 241.485 26.7742 241.347C26.6437 241.286 26.5314 241.242 26.4369 241.204C26.151 241.09 25.8049 240.934 25.7057 240.52C25.6144 240.073 25.9074 239.746 26.1013 239.529C26.4471 239.142 26.7149 238.937 26.8925 238.801C26.9575 238.751 27.0305 238.695 27.0513 238.671C27.2168 238.473 26.7366 237.368 26.5581 236.951C26.1541 236.015 25.8044 235.205 26.3104 234.694C26.6722 234.328 27.2809 234.361 28.1687 234.795C28.445 234.931 28.6701 235.094 28.852 235.243C28.9017 235.065 29.0028 234.89 29.2021 234.776C29.6743 234.506 30.2947 234.819 31.0479 235.706C31.2358 235.926 31.4871 236.223 31.6875 236.68C31.7816 236.895 31.8419 237.096 31.8908 237.268C31.9884 237.245 32.099 237.24 32.2222 237.272C32.5847 237.365 32.83 237.698 32.9358 238.27C33.0609 238.898 33.0758 239.439 33.0897 239.916C33.1022 240.333 33.1141 240.691 33.1983 240.953C33.3609 241.435 33.8364 241.711 34.4412 242.023L35.9736 242.795H35.9735V242.795Z" fill="#F2F2F2"/>
<path d="M34.8528 236.195L34.6113 233.955L34.7217 233.785C35.2322 233 35.4925 232.233 35.4956 231.505C35.4961 231.389 35.4909 231.273 35.4857 231.155C35.4649 230.688 35.4389 230.107 35.7303 229.43C35.8938 229.052 36.3528 228.178 37.043 228.287C37.2288 228.314 37.3693 228.402 37.476 228.506C37.4916 228.48 37.5077 228.454 37.5249 228.426C37.7399 228.085 37.9101 227.939 38.074 227.799C38.2 227.691 38.3301 227.579 38.5341 227.315C38.6236 227.2 38.6934 227.098 38.7522 227.012C38.9307 226.754 39.1639 226.446 39.575 226.451C40.0143 226.473 40.2444 226.85 40.3969 227.1C40.6691 227.546 40.7924 227.867 40.8741 228.08C40.9038 228.158 40.9376 228.246 40.9548 228.273C41.0964 228.489 42.2471 228.287 42.6807 228.213C43.6545 228.044 44.4971 227.898 44.8443 228.537C45.0931 228.993 44.9083 229.597 44.2785 230.379C44.0823 230.622 43.8736 230.807 43.6883 230.952C43.8418 231.047 43.9792 231.193 44.0349 231.423C44.1661 231.966 43.7169 232.51 42.7004 233.042C42.448 233.175 42.1082 233.352 41.6319 233.438C41.4076 233.478 41.2057 233.488 41.0329 233.493C41.0292 233.597 41.0058 233.709 40.9449 233.825C40.7664 234.166 40.3948 234.328 39.8348 234.289C39.2185 234.256 38.7111 234.133 38.2635 234.026C37.8726 233.933 37.5358 233.854 37.2715 233.873C36.7812 233.914 36.4033 234.322 35.9599 234.85L34.8528 236.195H34.8528L34.8528 236.195Z" fill="#F2F2F2"/>
<path d="M37.0589 279.68L36.6071 279.385L36.4978 278.843L36.6071 279.385L36.0804 279.448C36.0721 279.397 36.0435 279.28 36.0003 279.098C35.7645 278.096 35.0457 275.048 34.4462 270.247C34.0277 266.896 33.7909 263.451 33.742 260.005C33.693 256.555 33.8502 253.943 33.9762 251.843C34.0714 250.259 34.187 248.751 34.3004 247.282C34.6023 243.358 34.887 239.651 34.6752 235.547C34.6283 234.631 34.5299 232.724 33.4578 230.694C32.8358 229.518 31.9791 228.473 30.9111 227.59L31.5752 226.722C32.7541 227.698 33.7019 228.856 34.3925 230.162C35.5813 232.412 35.6885 234.49 35.74 235.489C35.9555 239.665 35.6677 243.408 35.3627 247.37C35.2503 248.834 35.1347 250.335 35.04 251.912C34.9151 253.992 34.7595 256.582 34.8079 259.988C34.8558 263.392 35.09 266.795 35.5027 270.104C36.095 274.844 36.8034 277.847 37.036 278.834C37.1599 279.36 37.1859 279.471 37.0589 279.68H37.0589H37.0589Z" fill="#F2F2F2"/>
<path d="M28.9557 229.35C28.912 229.35 28.8677 229.349 28.823 229.346C27.9153 229.295 27.0747 228.73 26.3242 227.668C25.9724 227.168 25.7923 226.598 25.4332 225.461C25.3775 225.286 25.1068 224.397 24.9424 223.173C24.8346 222.374 24.8482 222.04 25.0007 221.744C25.1698 221.416 25.4436 221.186 25.7517 221.032C25.7382 220.926 25.7491 220.816 25.7934 220.705C25.975 220.243 26.458 220.304 26.7193 220.333C26.8515 220.35 27.0164 220.373 27.1945 220.363C27.4745 220.349 27.6249 220.263 27.8528 220.133C28.0709 220.008 28.3421 219.854 28.7444 219.768C29.5376 219.596 30.2022 219.83 30.4214 219.907C31.5742 220.306 32.1425 221.237 32.8004 222.316C32.9316 222.532 33.3818 223.319 33.679 224.399C33.8934 225.178 33.8632 225.524 33.7987 225.781C33.6675 226.31 33.3578 226.613 32.5714 227.282C31.7501 227.982 31.3379 228.332 30.984 228.545C30.1601 229.04 29.6427 229.35 28.9557 229.35H28.9557Z" fill="#F2F2F2"/>
<path d="M248 279.618C248 279.823 247.84 279.989 247.643 279.989H0V279.247H247.643C247.84 279.247 248 279.413 248 279.618Z" fill="#E6E6E6"/>
<path d="M111.684 80.5694C109.167 77.5129 105.609 76.3851 103.737 78.0503C101.865 79.7155 102.389 83.5425 104.908 86.5998C105.898 87.8354 107.158 88.8066 108.584 89.4323L119.408 102.243L125.084 96.8365L113.811 84.7815C113.436 83.2211 112.707 81.7767 111.684 80.5694Z" fill="#FFB6B6"/>
<path d="M192.927 96.1914C192.927 96.1914 195.295 107.452 185.898 111.043C176.502 114.633 152.152 128.42 150.349 127.789C148.547 127.157 142.65 130.241 135.69 123.661C128.73 117.081 111.916 97.2436 111.916 97.2436L118.832 87.4826L144.872 106.176C144.872 106.176 145.429 106.004 147.897 105.738C150.366 105.472 148.435 107.09 152.296 103.854C156.157 100.618 180.801 89.02 180.801 89.02C180.801 89.02 188.032 85.2962 192.927 96.1914L192.927 96.1913V96.1914Z" fill="#2F2E41"/>
<path d="M131.483 253.275L135.311 266.094L124.677 273.608L117.021 266.536C117.021 266.536 119.998 255.485 118.722 252.833L131.483 253.275Z" fill="#FFB6B6"/>
<path d="M185.503 71.6067L191.602 85.5876L173.757 97.1149L172.742 80.447L185.503 71.6067Z" fill="#FFB6B6"/>
<path opacity="0.1" d="M185.503 71.6067L191.602 85.5876L173.757 97.1149L172.742 80.447L185.503 71.6067Z" fill="black"/>
<path d="M242.17 119.428C236.223 115.87 230.566 121.553 225.295 139.511C225.295 139.511 203.029 172.281 203.022 185.956H139.327L125.237 206.724L124.154 206.904C124.154 206.904 131.22 208.659 142.31 210.593V279.632H146.113V211.235C149.434 211.778 153.039 212.322 156.865 212.832V279.632H160.669V213.317C171.318 214.619 183.403 215.6 195.662 215.6C196.444 215.6 197.2 215.584 197.944 215.562V279.632H201.748V215.339C207.886 214.793 212.596 213.417 216.202 211.572V279.632H220.005V209.172C229.664 201.678 227.613 190.303 227.613 190.303C224.71 172.204 238.644 144.895 245.407 132.977C248.06 128.301 246.697 122.136 242.17 119.428V119.428Z" fill="#CCCCCC"/>
<path d="M178.489 84.0707C185.646 84.0707 191.448 78.0419 191.448 70.6049C191.448 63.168 185.646 57.1392 178.489 57.1392C171.333 57.1392 165.531 63.168 165.531 70.6049C165.531 78.0419 171.333 84.0707 178.489 84.0707Z" fill="#FFB6B6"/>
<path d="M173.592 94.1495L191.883 81.331L188.905 189.625C188.905 189.625 173.805 162.441 162.32 161.115C162.32 161.115 163.596 158.021 164.447 156.253C165.298 154.485 166.574 145.644 166.574 145.644L172.529 97.9066L173.592 94.1495V94.1495Z" fill="#6C63FF"/>
<path d="M188.267 206.201L172.104 146.97C172.104 146.97 174.656 99.2327 191.883 81.331L195.923 87.7402C195.923 87.7402 199.919 88.3563 199.197 91.1424C198.476 93.9285 215.065 196.476 215.065 196.476H197.871C197.871 196.476 196.349 206.201 188.267 206.201Z" fill="#2F2E41"/>
<path d="M173.592 94.1495V92.3814C173.592 92.3814 165.723 93.0444 165.298 97.9066C164.873 102.769 161.47 121.775 164.873 133.268L160.619 140.34L157.642 157.137L166.999 159.789L172.104 119C172.104 119 175.507 97.4646 173.592 94.1495V94.1495Z" fill="#2F2E41"/>
<path d="M188.693 178.354C188.693 178.354 195.924 200.012 180.611 200.454C165.298 200.896 141.443 200.896 141.443 200.896L129.568 207.527L132.971 255.707L109.151 256.149C109.151 256.149 101.495 196.918 108.3 189.846C115.106 182.774 134.672 175.26 134.672 175.26L157.216 163.325L163.557 155.327L188.693 178.354Z" fill="#2F2E41"/>
<path d="M189.561 78.4579C190.464 78.1243 198.922 67.8228 191.883 60.9983C191.883 60.9983 189.14 52.6613 178.2 53.5358C167.261 54.4102 164.315 60.6279 164.315 63.8589C164.315 67.0899 167.212 70.7226 167.212 70.7226C167.212 70.7226 165.157 61.8432 169.785 62.2804C174.413 62.7176 173.151 64.4666 176.517 63.5921C179.883 62.7176 183.249 64.0293 183.249 64.0293L186.615 65.341V70.6756C186.615 70.6756 188.083 69.4517 188.191 70.6756C188.298 71.8995 189.561 78.4579 189.561 78.4579Z" fill="#2F2E41"/>
<path d="M116.382 187.636L115.957 201.338L99.3682 198.244C99.3682 198.244 106.491 186.063 105.482 182.65L116.382 187.636Z" fill="#FFB6B6"/>
<path d="M114.681 198.244C114.681 198.244 117.658 198.244 117.658 200.012C117.658 201.78 122.337 215.483 113.405 215.925C104.472 216.367 104.898 214.599 104.898 214.599C104.898 214.599 79.8016 226.533 70.8691 208.853C70.8691 208.853 68.7423 204.433 73.8466 203.549C78.9509 202.665 99.368 195.263 99.368 195.263C99.368 195.263 111.278 200.012 114.681 198.244Z" fill="#2F2E41"/>
<path d="M131.907 266.094C131.907 266.094 134.885 262.345 135.31 262.673C135.735 263 145.093 274.05 138.713 277.144C132.333 280.238 128.93 281.564 128.93 281.564L127.228 278.912C127.228 278.912 114.468 291.731 94.9012 282.89C94.9012 282.89 93.1998 278.912 97.028 278.028C100.856 277.144 117.02 263.675 117.02 263.675C117.02 263.675 123.825 268.746 127.228 267.862C130.631 266.978 131.907 266.094 131.907 266.094Z" fill="#2F2E41"/>
<path d="M162.32 159.789C162.32 159.789 122.55 138.793 119.147 138.793C115.744 138.793 109.24 140.248 107.813 147.035C106.386 153.822 97.8789 186.531 97.8789 186.531L118.721 191.835L126.803 168.408L139.989 180.785L162.32 166.946V159.789Z" fill="#2F2E41"/>
<path d="M143.593 151.678C139.763 152.262 136.948 154.79 137.306 157.323C137.664 159.856 141.06 161.435 144.891 160.85C146.425 160.638 147.888 160.048 149.157 159.128L165.357 156.44L163.981 148.567L148.156 152.053C146.686 151.551 145.121 151.423 143.593 151.678Z" fill="#FFB6B6"/>
<path d="M199.617 88.5729C199.617 88.5729 210.048 92.4937 207.963 102.669C205.878 112.845 204.124 141.603 202.649 142.851C201.174 144.099 200.542 150.928 191.475 153.54C182.408 156.152 156.388 167.714 156.388 167.714L153.032 149.078L182.132 136.147C182.132 136.147 182.289 135.566 183.388 133.254C184.488 130.942 184.776 133.501 184.199 128.382C183.622 123.262 187.315 95.4126 187.315 95.4126C187.315 95.4126 188.137 87.0696 199.617 88.5729L199.617 88.5729Z" fill="#2F2E41"/>
<path d="M105.43 6.15995C105.377 6.21301 105.329 6.26883 105.277 6.32234C97.1649 -2.04263 84.1007 -2.11622 75.9019 6.15679C67.674 14.4624 67.3959 28.0971 75.2779 36.7575L75.2728 36.7627L75.469 36.9727L104.494 68.0284L134.582 37.6623L134.498 37.5728C134.549 37.5227 134.601 37.4763 134.651 37.4256C142.96 29.0402 143.153 15.2435 135.084 6.60974C127.015 -2.02403 113.738 -2.2254 105.43 6.15994L105.43 6.15995Z" fill="#6C63FF"/>
</g>
<defs>
<clipPath id="clip0_212_1153">
<rect width="248" height="286" fill="white"/>
</clipPath>
</defs>
</svg>
