<svg width="55" height="54" viewBox="0 0 55 54" fill="none" xmlns="http://www.w3.org/2000/svg">
<path d="M18.3494 5.36625C15.0755 6.25213 11.8238 7.21541 8.59721 8.25525C8.30258 8.34895 8.04067 8.52202 7.84133 8.75473C7.64199 8.98744 7.51323 9.27044 7.46971 9.5715C5.56533 23.6014 9.96533 33.8377 15.2144 40.581C17.4368 43.4646 20.0867 46.0049 23.076 48.1174C24.2653 48.9409 25.3172 49.5349 26.1456 49.9162C26.5581 50.1086 26.895 50.2369 27.1528 50.3145C27.2656 50.3533 27.3818 50.3816 27.5 50.3989C27.6168 50.3802 27.7318 50.352 27.8438 50.3145C28.105 50.2369 28.4419 50.1086 28.8544 49.9162C29.6794 49.5349 30.7347 48.9375 31.9241 48.1174C34.9133 46.0049 37.5632 43.4645 39.7856 40.581C45.0347 33.8411 49.4347 23.6014 47.5303 9.5715C47.4872 9.27031 47.3586 8.98712 47.1592 8.75434C46.9598 8.52157 46.6977 8.3486 46.4028 8.25525C44.165 7.53638 40.3872 6.36525 36.6506 5.36963C32.835 4.35375 29.3253 3.60113 27.5 3.60113C25.6781 3.60113 22.165 4.35375 18.3494 5.36963V5.36625ZM17.435 1.89C21.1647 0.894375 25.1281 0 27.5 0C29.8719 0 33.8353 0.894375 37.565 1.89C41.3806 2.9025 45.2272 4.10063 47.4891 4.82625C48.4348 5.13287 49.2732 5.6952 49.908 6.44862C50.5428 7.20204 50.9483 8.116 51.0778 9.0855C53.1266 24.1954 48.3725 35.3936 42.6044 42.8018C40.1584 45.9708 37.2419 48.7615 33.9522 51.0806C32.8147 51.8831 31.6095 52.5888 30.3497 53.19C29.3872 53.6355 28.3525 54 27.5 54C26.6475 54 25.6163 53.6355 24.6503 53.19C23.3905 52.5888 22.1853 51.8831 21.0478 51.0806C17.7582 48.7614 14.8417 45.9707 12.3956 42.8018C6.62752 35.3936 1.87346 24.1954 3.92221 9.0855C4.05176 8.116 4.45723 7.20204 5.09205 6.44862C5.72686 5.6952 6.56527 5.13287 7.51096 4.82625C10.7944 3.76923 14.1034 2.7902 17.435 1.89Z" fill="url(#paint0_linear_3_89)" fill-opacity="0.85"/>
<path d="M37.3107 17.3677C37.4707 17.5245 37.5977 17.7107 37.6844 17.9157C37.771 18.1207 37.8156 18.3405 37.8156 18.5625C37.8156 18.7845 37.771 19.0042 37.6844 19.2093C37.5977 19.4143 37.4707 19.6005 37.3107 19.7572L26.9982 29.8822C26.8385 30.0394 26.6488 30.1641 26.44 30.2491C26.2312 30.3342 26.0074 30.378 25.7813 30.378C25.5552 30.378 25.3314 30.3342 25.1225 30.2491C24.9137 30.1641 24.7241 30.0394 24.5644 29.8822L19.4082 24.8197C19.2484 24.6628 19.1216 24.4766 19.0351 24.2716C18.9486 24.0666 18.9041 23.8469 18.9041 23.625C18.9041 23.4031 18.9486 23.1834 19.0351 22.9784C19.1216 22.7734 19.2484 22.5871 19.4082 22.4302C19.568 22.2733 19.7577 22.1489 19.9665 22.064C20.1753 21.9791 20.399 21.9354 20.625 21.9354C20.851 21.9354 21.0748 21.9791 21.2836 22.064C21.4924 22.1489 21.6821 22.2733 21.8419 22.4302L25.7813 26.3014L34.8769 17.3677C35.0366 17.2106 35.2262 17.0859 35.435 17.0008C35.6439 16.9158 35.8677 16.872 36.0938 16.872C36.3199 16.872 36.5437 16.9158 36.7525 17.0008C36.9613 17.0859 37.151 17.2106 37.3107 17.3677Z" fill="url(#paint1_linear_3_89)" fill-opacity="0.85"/>
<defs>
<linearGradient id="paint0_linear_3_89" x1="27.5" y1="0" x2="27.5" y2="54" gradientUnits="userSpaceOnUse">
<stop stop-color="#548CA8"/>
<stop offset="1" stop-opacity="0.85"/>
</linearGradient>
<linearGradient id="paint1_linear_3_89" x1="28.3599" y1="16.872" x2="28.3599" y2="30.378" gradientUnits="userSpaceOnUse">
<stop stop-color="#548CA8"/>
<stop offset="1" stop-opacity="0.85"/>
</linearGradient>
</defs>
</svg>
