<svg width="537" height="449" viewBox="0 0 537 449" fill="none" xmlns="http://www.w3.org/2000/svg">
<g clip-path="url(#clip0_413_568)">
<path d="M184.869 273.419H68.7376C68.0118 273.418 67.316 273.111 66.8027 272.566C66.2895 272.021 66.0008 271.282 66 270.512V122.837C66.0008 122.066 66.2895 121.328 66.8027 120.783C67.316 120.238 68.0118 119.931 68.7376 119.93H184.869C185.595 119.931 186.291 120.238 186.804 120.783C187.318 121.328 187.606 122.066 187.607 122.837V270.512C187.606 271.282 187.318 272.021 186.804 272.566C186.291 273.111 185.595 273.418 184.869 273.419ZM68.7376 121.093C68.3021 121.093 67.8846 121.277 67.5767 121.604C67.2687 121.931 67.0955 122.375 67.095 122.837V270.512C67.0955 270.974 67.2687 271.417 67.5767 271.744C67.8846 272.071 68.3021 272.255 68.7376 272.256H184.869C185.305 272.255 185.722 272.071 186.03 271.744C186.338 271.417 186.512 270.974 186.512 270.512V122.837C186.512 122.375 186.338 121.931 186.03 121.604C185.722 121.277 185.305 121.093 184.869 121.093H68.7376Z" fill="#CACACA"/>
<path d="M169.236 151.326H84.371V207.14H169.236V151.326Z" fill="#548CA8"/>
<path d="M105.724 228.07H84.371V242.023H105.724V228.07Z" fill="#E4E4E4"/>
<path d="M169.236 228.07H147.883V242.023H169.236V228.07Z" fill="#E4E4E4"/>
<path d="M137.48 228.07H116.127V242.023H137.48V228.07Z" fill="#E4E4E4"/>
<path d="M344.744 202.488H228.612C227.887 202.487 227.191 202.181 226.678 201.636C226.164 201.091 225.876 200.352 225.875 199.581V51.907C225.876 51.1363 226.164 50.3974 226.678 49.8524C227.191 49.3074 227.887 49.0009 228.612 49H344.744C345.47 49.0009 346.166 49.3074 346.679 49.8524C347.192 50.3974 347.481 51.1363 347.482 51.907V199.581C347.481 200.352 347.192 201.091 346.679 201.636C346.166 202.181 345.47 202.487 344.744 202.488ZM228.612 50.1628C228.177 50.1633 227.759 50.3472 227.451 50.6742C227.144 51.0012 226.97 51.4445 226.97 51.907V199.581C226.97 200.044 227.144 200.487 227.451 200.814C227.759 201.141 228.177 201.325 228.612 201.326H344.744C345.18 201.325 345.597 201.141 345.905 200.814C346.213 200.487 346.386 200.044 346.387 199.581V51.907C346.386 51.4445 346.213 51.0012 345.905 50.6742C345.597 50.3472 345.18 50.1633 344.744 50.1628H228.612Z" fill="#CACACA"/>
<path d="M346.131 296.093H230C229.274 296.092 228.578 295.786 228.065 295.241C227.552 294.696 227.263 293.957 227.262 293.186V249.581C227.263 248.811 227.552 248.072 228.065 247.527C228.578 246.982 229.274 246.675 230 246.674H346.131C346.857 246.675 347.553 246.982 348.066 247.527C348.579 248.072 348.868 248.811 348.869 249.581V293.186C348.868 293.957 348.579 294.696 348.066 295.241C347.553 295.786 346.857 296.092 346.131 296.093ZM230 247.837C229.564 247.838 229.147 248.022 228.839 248.349C228.531 248.676 228.358 249.119 228.357 249.581V293.186C228.358 293.649 228.531 294.092 228.839 294.419C229.147 294.746 229.564 294.93 230 294.93H346.131C346.567 294.93 346.984 294.746 347.292 294.419C347.6 294.092 347.773 293.649 347.774 293.186V249.581C347.773 249.119 347.6 248.676 347.292 248.349C346.984 248.022 346.567 247.838 346.131 247.837H230Z" fill="#CACACA"/>
<path d="M322.267 148.128H251.09C247.461 148.128 244.52 151.252 244.52 155.105V155.105C244.52 158.958 247.461 162.081 251.09 162.081H322.267C325.896 162.081 328.837 158.958 328.837 155.105C328.837 151.252 325.896 148.128 322.267 148.128Z" fill="#E4E4E4"/>
<path d="M322.267 170.221H251.09C247.461 170.221 244.52 173.345 244.52 177.198V177.198C244.52 181.051 247.461 184.174 251.09 184.174H322.267C325.896 184.174 328.837 181.051 328.837 177.198C328.837 173.345 325.896 170.221 322.267 170.221Z" fill="#E4E4E4"/>
<path d="M286.678 132.43C303.612 132.43 317.339 117.853 317.339 99.8721C317.339 81.8907 303.612 67.314 286.678 67.314C269.745 67.314 256.017 81.8907 256.017 99.8721C256.017 117.853 269.745 132.43 286.678 132.43Z" fill="#548CA8"/>
<path d="M321.19 264.407H289.982C286.353 264.407 283.412 267.531 283.412 271.384C283.412 275.237 286.353 278.36 289.982 278.36H321.19C324.819 278.36 327.76 275.237 327.76 271.384C327.76 267.531 324.819 264.407 321.19 264.407Z" fill="#E4E4E4"/>
<path d="M260.416 284.174C267.068 284.174 272.461 278.448 272.461 271.384C272.461 264.32 267.068 258.593 260.416 258.593C253.763 258.593 248.371 264.32 248.371 271.384C248.371 278.448 253.763 284.174 260.416 284.174Z" fill="#548CA8"/>
<path d="M536.452 449H327.849C327.703 449 327.564 448.939 327.462 448.83C327.359 448.721 327.301 448.573 327.301 448.419C327.301 448.264 327.359 448.116 327.462 448.007C327.564 447.898 327.703 447.837 327.849 447.837H536.452C536.598 447.837 536.737 447.898 536.84 448.007C536.942 448.116 537 448.264 537 448.419C537 448.573 536.942 448.721 536.84 448.83C536.737 448.939 536.598 449 536.452 449Z" fill="#CACACA"/>
<path d="M474.655 323.445C474.273 322.864 474.015 322.202 473.9 321.505C473.785 320.808 473.816 320.092 473.989 319.408C474.163 318.725 474.476 318.09 474.905 317.549C475.335 317.007 475.871 316.572 476.476 316.275L474.864 299.15L482.322 303.307L482.709 318.931C483.113 320.044 483.118 321.275 482.723 322.391C482.329 323.507 481.563 324.431 480.57 324.987C479.577 325.543 478.427 325.694 477.337 325.409C476.246 325.125 475.292 324.426 474.655 323.445V323.445Z" fill="#FFB6B6"/>
<path d="M409.344 321.037C408.962 320.456 408.705 319.794 408.59 319.097C408.475 318.399 408.505 317.684 408.679 317C408.852 316.317 409.165 315.682 409.595 315.14C410.025 314.599 410.561 314.164 411.166 313.867L409.554 296.742L417.011 300.898L417.399 316.523C417.802 317.636 417.807 318.867 417.413 319.983C417.018 321.099 416.252 322.023 415.259 322.579C414.267 323.135 413.116 323.286 412.026 323.001C410.936 322.717 409.982 322.018 409.344 321.037V321.037Z" fill="#FFB6B6"/>
<path d="M459.089 441.869H453.529L450.883 419.094H459.09L459.089 441.869Z" fill="#FFB6B6"/>
<path d="M460.507 447.592L442.578 447.591V447.351C442.578 445.385 443.313 443.501 444.622 442.111C445.931 440.721 447.706 439.941 449.557 439.94H449.557L460.507 439.941L460.507 447.592Z" fill="#2F2E41"/>
<path d="M417.817 441.869H412.256L409.611 419.094H417.817L417.817 441.869Z" fill="#FFB6B6"/>
<path d="M419.234 447.592L401.305 447.591V447.351C401.305 445.385 402.041 443.501 403.349 442.111C404.658 440.721 406.433 439.941 408.284 439.94H408.284L419.235 439.941L419.234 447.592Z" fill="#2F2E41"/>
<path d="M455.087 205.069C462.202 200.938 464.818 191.464 460.928 183.908C457.038 176.352 448.116 173.575 441 177.705C433.884 181.836 431.269 191.31 435.159 198.866C439.049 206.422 447.971 209.199 455.087 205.069Z" fill="#FFB8B8"/>
<path d="M415.632 312.944L412.911 317.522L407.469 436.718L418.807 436.237L441.485 335.58L450.555 437.199L460.533 437.681L468.629 319.506L415.632 312.944Z" fill="#2F2E41"/>
<path d="M475.047 222.883L456.451 212.288L435.588 210.843L417.204 222.883C417.204 222.883 433.321 273.452 415.632 302.83L412.911 316.797L469.151 321.132C469.151 321.132 465.522 258.522 470.511 250.816C475.5 243.111 475.047 222.883 475.047 222.883Z" fill="#3F3D56"/>
<path d="M468.629 225.507L475.047 222.883C475.047 222.883 486.385 233.478 485.932 259.004C485.478 284.529 483.029 312.944 483.029 312.944L474.593 314.389L470.058 272.971L463.708 236.85L468.629 225.507Z" fill="#3F3D56"/>
<path d="M423.864 225.507L417.446 222.883C417.446 222.883 406.108 233.478 406.561 259.004C407.015 284.529 409.465 312.944 409.465 312.944L417.9 314.389L422.435 272.971L428.785 236.85L423.864 225.507Z" fill="#3F3D56"/>
<path d="M458.658 175.657C457.373 174.317 455.833 173.284 454.141 172.627C452.449 171.969 450.645 171.702 448.849 171.844C445.689 172.115 445.483 172.196 442.644 173.696C440.875 174.584 439.156 175.582 437.497 176.685C437.482 175.968 434.681 173.228 434.228 173.759C433.775 174.289 435.396 177.736 435.034 178.341C434.672 178.945 431.395 176.784 431.053 176.167C433.584 179.873 436.926 187.201 436.124 191.7C436.678 191.036 437.404 190.561 438.212 190.336C439.02 190.111 439.872 190.144 440.662 190.433C441.451 190.722 442.143 191.253 442.648 191.959C443.154 192.664 443.451 193.513 443.503 194.398C443.681 197.474 440.997 200.846 442.752 203.3C443.756 204.704 445.669 204.821 447.329 204.813L459.613 203.358C462.252 198.892 463.897 195.35 464.615 190.133C465.333 184.917 462.18 179.373 458.658 175.657Z" fill="#2F2E41"/>
</g>
<ellipse cx="212.5" cy="207" rx="212.5" ry="207" fill="url(#paint0_radial_413_568)" fill-opacity="0.2"/>
<defs>
<radialGradient id="paint0_radial_413_568" cx="0" cy="0" r="1" gradientUnits="userSpaceOnUse" gradientTransform="translate(212.5 207) rotate(90) scale(207 212.5)">
<stop/>
<stop offset="1" stop-color="#548CA8" stop-opacity="0.21"/>
<stop offset="1" stop-color="#548CA8"/>
</radialGradient>
<clipPath id="clip0_413_568">
<rect width="471" height="400" fill="white" transform="translate(66 49)"/>
</clipPath>
</defs>
</svg>
